<?xml version="1.0" encoding="UTF-8"?>
<svg version="1.1" xmlns="http://www.w3.org/2000/svg" width="1024" height="1024">
<path d="M0 0 C337.92 0 675.84 0 1024 0 C1024 337.92 1024 675.84 1024 1024 C686.08 1024 348.16 1024 0 1024 C0 686.08 0 348.16 0 0 Z " fill="#1B2024" transform="translate(0,0)"/>
<path d="M0 0 C0.79346832 0.00248749 1.58693665 0.00497498 2.40444946 0.00753784 C14.60997409 0.06662926 26.45088961 0.48067005 38.375 3.3125 C39.34937012 3.54356445 40.32374023 3.77462891 41.32763672 4.01269531 C87.28625287 15.27393737 126.49086185 43.08881477 151.66162109 83.37158203 C176.11285614 123.86401414 182.62948939 171.62769055 171.5625 217.5625 C163.11713333 249.0812458 147.86029023 274.76195573 125.375 298.3125 C124.84293945 298.8708252 124.31087891 299.42915039 123.76269531 300.00439453 C119.57823076 304.29910135 115.15067679 308.06707689 110.375 311.6875 C109.26523804 312.52994263 109.26523804 312.52994263 108.13305664 313.3894043 C69.59111553 342.19807452 23.20422187 352.7590251 -24.39355469 347.93017578 C-31.28529798 346.91477469 -37.9491464 345.28238395 -44.625 343.3125 C-45.54007324 343.05017578 -46.45514648 342.78785156 -47.39794922 342.51757812 C-59.45045841 338.99372443 -70.64355121 334.38473924 -81.625 328.3125 C-82.70265625 327.7246875 -83.7803125 327.136875 -84.890625 326.53125 C-91.84534472 322.60807477 -98.29585429 318.17401772 -104.625 313.3125 C-105.47320313 312.67054688 -106.32140625 312.02859375 -107.1953125 311.3671875 C-142.75855162 283.44739082 -166.79945187 242.23014467 -172.625 197.3125 C-178.1688159 149.73386946 -166.14869431 104.44843733 -136.83984375 66.65234375 C-134.23177591 63.4149952 -131.46913874 60.34312488 -128.625 57.3125 C-128.04024902 56.68537109 -127.45549805 56.05824219 -126.85302734 55.41210938 C-93.71367733 20.22439225 -48.4587398 -0.24334523 0 0 Z " fill="#1B1F24" transform="translate(685.625,481.6875)"/>
<path d="M0 0 C0.98071472 0.00007553 1.96142944 0.00015106 2.97186279 0.00022888 C4.02303284 0.00539017 5.07420288 0.01055145 6.15722656 0.01586914 C7.23917297 0.01728409 8.32111938 0.01869904 9.43585205 0.02015686 C12.88988007 0.02575221 16.34384315 0.03830389 19.79785156 0.05102539 C22.14029854 0.05604099 24.48274654 0.06060379 26.82519531 0.06469727 C32.56610287 0.07572012 38.30697257 0.09245365 44.04785156 0.11352539 C44.07758057 1.31513306 44.07758057 1.31513306 44.10791016 2.54101562 C44.20384847 6.21131887 44.3132472 9.88110584 44.42285156 13.55102539 C44.45378906 14.81108398 44.48472656 16.07114258 44.51660156 17.36938477 C44.89943075 29.58801623 46.1657224 39.58670029 54.71582031 48.93774414 C60.19400728 53.91449523 66.59405822 57.51722192 74.04785156 58.11352539 C74.77617187 58.17668945 75.50449219 58.23985352 76.25488281 58.30493164 C85.30649974 58.7468216 94.00640172 55.87471163 101.04785156 50.11352539 C115.65615418 35.69453123 112.32461579 21.81059861 113.04785156 0.11352539 C172.11785156 0.11352539 231.18785156 0.11352539 292.04785156 0.11352539 C292.37785156 10.34352539 292.70785156 20.57352539 293.04785156 31.11352539 C297.1357879 42.35535033 300.63306196 49.6460046 311.36035156 55.17602539 C319.7400958 58.96782592 328.11774177 59.40910667 336.86035156 56.36352539 C345.58054574 52.8012333 352.98122771 47.23218991 356.92285156 38.42602539 C358.68560441 33.23569757 359.20108997 28.54052173 359.36425781 23.06274414 C359.39542946 22.07453423 359.39542946 22.07453423 359.42723083 21.06636047 C359.49220645 18.97801354 359.55136731 16.88954927 359.61035156 14.80102539 C359.65358635 13.3784876 359.69720216 11.95596133 359.74121094 10.53344727 C359.84783372 7.06026242 359.94924504 3.58694813 360.04785156 0.11352539 C366.843025 0.03701593 373.63808597 -0.01526621 380.43359375 -0.05126953 C382.74190421 -0.06629002 385.05018645 -0.0867124 387.35839844 -0.11279297 C390.68984981 -0.14947346 394.02092151 -0.16626892 397.35253906 -0.17944336 C398.37274139 -0.19492722 399.39294373 -0.21041107 400.44406128 -0.22636414 C415.56234385 -0.22985881 427.15295805 5.97528633 438.11425781 16.00415039 C448.33647864 26.48642772 454.3883742 40.8751972 454.2883606 55.42124939 C454.29092387 56.79616912 454.29092387 56.79616912 454.29353893 58.198865 C454.29682351 61.25895921 454.28584708 64.31883236 454.27490234 67.37890625 C454.27433801 69.57695511 454.27465523 71.77500434 454.27578735 73.97305298 C454.27636099 79.93322526 454.26460481 85.89331699 454.25063944 91.85347056 C454.23813397 98.08480975 454.23696172 104.31615081 454.23458862 110.54750061 C454.22907941 121.00417447 454.21658835 131.46082077 454.19873047 141.91748047 C454.18035966 152.68570814 454.16620904 163.45392778 454.15771484 174.22216797 C454.1571894 174.88642892 454.15666395 175.55068987 454.15612258 176.23507994 C454.15351242 179.56763334 454.15098954 182.90018679 454.14849877 186.23274028 C454.12759564 213.85968921 454.09241866 241.48660522 454.04785156 269.11352539 C443.14684397 266.43294975 432.73692116 262.67654859 422.04785156 259.11352539 C422.04785156 212.25352539 422.04785156 165.39352539 422.04785156 117.11352539 C277.17785156 117.11352539 132.30785156 117.11352539 -16.95214844 117.11352539 C-16.95214844 207.86352539 -16.95214844 298.61352539 -16.95214844 392.11352539 C-27.51214844 392.11352539 -38.07214844 392.11352539 -48.95214844 392.11352539 C-49.04262117 348.51125907 -49.1142124 304.90901532 -49.15640976 261.30667369 C-49.16141243 256.15610913 -49.16658974 251.00554475 -49.171875 245.85498047 C-49.17292424 244.82961902 -49.17397348 243.80425758 -49.17505452 242.74782457 C-49.19244793 226.157004 -49.22397976 209.56623901 -49.26075962 192.97545139 C-49.29819864 175.94497519 -49.32039055 158.91452806 -49.32850242 141.8840124 C-49.33398404 131.37980904 -49.35128177 120.87576279 -49.38381431 110.3716078 C-49.40499874 103.16326621 -49.41133959 95.95500556 -49.40615395 88.74663512 C-49.40359828 84.59109513 -49.40744695 80.43582923 -49.42897034 76.28033829 C-49.44856983 72.46825891 -49.44933271 68.6566355 -49.43574402 64.84453424 C-49.43327854 62.82803945 -49.45040998 60.81154928 -49.46847367 58.79513389 C-49.35488042 41.33477946 -42.77657633 26.77969222 -30.95214844 14.11352539 C-23.10923632 6.63158413 -10.95891224 -0.02824462 0 0 Z " fill="#2B6730" transform="translate(310.9521484375,202.886474609375)"/>
<path d="M0 0 C0.79346832 0.00248749 1.58693665 0.00497498 2.40444946 0.00753784 C14.60997409 0.06662926 26.45088961 0.48067005 38.375 3.3125 C39.34937012 3.54356445 40.32374023 3.77462891 41.32763672 4.01269531 C87.28625287 15.27393737 126.49086185 43.08881477 151.66162109 83.37158203 C176.11285614 123.86401414 182.62948939 171.62769055 171.5625 217.5625 C163.11713333 249.0812458 147.86029023 274.76195573 125.375 298.3125 C124.84293945 298.8708252 124.31087891 299.42915039 123.76269531 300.00439453 C119.57823076 304.29910135 115.15067679 308.06707689 110.375 311.6875 C109.26523804 312.52994263 109.26523804 312.52994263 108.13305664 313.3894043 C69.59111553 342.19807452 23.20422187 352.7590251 -24.39355469 347.93017578 C-31.28529798 346.91477469 -37.9491464 345.28238395 -44.625 343.3125 C-45.54007324 343.05017578 -46.45514648 342.78785156 -47.39794922 342.51757812 C-59.45045841 338.99372443 -70.64355121 334.38473924 -81.625 328.3125 C-82.70265625 327.7246875 -83.7803125 327.136875 -84.890625 326.53125 C-91.84534472 322.60807477 -98.29585429 318.17401772 -104.625 313.3125 C-105.47320313 312.67054688 -106.32140625 312.02859375 -107.1953125 311.3671875 C-142.75855162 283.44739082 -166.79945187 242.23014467 -172.625 197.3125 C-178.1688159 149.73386946 -166.14869431 104.44843733 -136.83984375 66.65234375 C-134.23177591 63.4149952 -131.46913874 60.34312488 -128.625 57.3125 C-128.04024902 56.68537109 -127.45549805 56.05824219 -126.85302734 55.41210938 C-93.71367733 20.22439225 -48.4587398 -0.24334523 0 0 Z M-43.5 36 C-44.24483643 36.25491211 -44.98967285 36.50982422 -45.75708008 36.77246094 C-83.20201621 49.98135844 -113.97446061 77.91726171 -131.66113281 113.390625 C-140.56477307 132.14643403 -143.80183393 151.90382438 -143.8125 172.5 C-143.82474609 173.72525391 -143.83699219 174.95050781 -143.84960938 176.21289062 C-143.91063398 214.80078388 -127.74090543 249.60840175 -101.0625 276.9375 C-100.258125 277.72125 -99.45375 278.505 -98.625 279.3125 C-98.13644531 279.85777344 -97.64789062 280.40304687 -97.14453125 280.96484375 C-86.29101433 292.68089181 -72.07382828 300.85263275 -57.625 307.3125 C-56.449375 307.85519531 -55.27375 308.39789062 -54.0625 308.95703125 C-19.38923536 323.97450881 20.99550878 322.60115934 55.890625 309.26953125 C73.20021784 302.30998809 87.72090826 292.97035194 101.375 280.3125 C102.73238281 279.06146484 102.73238281 279.06146484 104.1171875 277.78515625 C131.60240317 251.37023714 146.67777957 213.6681599 147.59472656 175.83203125 C148.09790198 136.03247878 132.7626255 101.401372 105.39453125 72.99755859 C81.78399142 48.9534624 48.24346597 30.56150006 13.86804199 30.12225342 C13.07627563 30.11800354 12.28450928 30.11375366 11.46875 30.109375 C10.62638794 30.10367493 9.78402588 30.09797485 8.9161377 30.09210205 C7.13778927 30.08269649 5.35942377 30.07613585 3.58105469 30.07226562 C0.91048207 30.06262805 -1.75929718 30.03159057 -4.4296875 30 C-18.02606297 29.91501574 -30.56840136 31.53166943 -43.5 36 Z " fill="#2B6730" transform="translate(685.625,481.6875)"/>
<path d="M0 0 C1.30485352 -0.01268417 2.60970703 -0.02536835 3.95410156 -0.03843689 C5.37044433 -0.03638547 6.786786 -0.03339746 8.203125 -0.02954102 C9.66373945 -0.03410492 11.12435174 -0.03941112 12.58496094 -0.04542542 C15.64136497 -0.0543459 18.69750756 -0.0519452 21.75390625 -0.04199219 C25.66478921 -0.03049558 29.57477017 -0.05072879 33.48553467 -0.07990932 C36.50022075 -0.09828018 39.51469092 -0.09797733 42.52941895 -0.0922718 C43.97108222 -0.09211874 45.41276027 -0.09815099 46.85437012 -0.11056328 C48.87161279 -0.12548754 50.88900425 -0.11215878 52.90625 -0.09765625 C54.05254883 -0.09749008 55.19884766 -0.09732391 56.37988281 -0.09715271 C60.11079583 0.51131021 61.76932775 1.79463425 64.453125 4.40405273 C65.6141448 6.72609232 65.58238618 8.06426565 65.59013939 10.64984608 C65.59521393 11.54597734 65.60028847 12.44210861 65.60551679 13.36539537 C65.60601455 14.3561328 65.60651231 15.34687023 65.60702515 16.36763 C65.61359853 17.93911097 65.61359853 17.93911097 65.6203047 19.54233903 C65.63372987 23.07607934 65.63987987 26.60979469 65.64599609 30.14355469 C65.65389404 32.66772577 65.66216279 35.19189571 65.67077637 37.71606445 C65.69476226 45.30745334 65.70992834 52.89884103 65.72283643 60.49025586 C65.72654751 62.63367404 65.7305208 64.77709157 65.7345891 66.9205091 C65.75982337 80.22539008 65.78188063 93.53027207 65.79431725 106.8351717 C65.79724703 109.91762102 65.80020868 113.0000703 65.80322266 116.08251953 C65.80396871 116.84866497 65.80471476 117.61481041 65.80548342 118.40417238 C65.81814137 130.81970146 65.85136984 143.23508746 65.89302449 155.65054963 C65.93542159 168.39152788 65.95900964 181.13243283 65.96423781 193.87348145 C65.96765434 201.0294789 65.97943775 208.18525271 66.01234055 215.3411808 C66.04323258 222.07088916 66.0487705 228.8001391 66.03695679 235.52993011 C66.03673518 238.00312184 66.04511162 240.47633115 66.06261063 242.94946098 C66.08516546 246.31995798 66.07706967 249.68902216 66.06112671 253.05952454 C66.08194984 254.53559243 66.08194984 254.53559243 66.10319364 256.04147989 C66.04878087 260.69404704 65.98632094 262.72257995 63.04012489 266.48808575 C59.16553363 269.35766026 57.22669681 269.53295527 52.43041992 269.54931641 C50.53286201 269.55888618 50.53286201 269.55888618 48.5969696 269.56864929 C47.20917804 269.57017823 45.82138597 269.57129205 44.43359375 269.57202148 C43.0135342 269.57523433 41.59347499 269.57859843 40.17341614 269.58210754 C37.19332106 269.58810118 34.21325498 269.58994728 31.2331543 269.58935547 C27.41997549 269.58925401 23.60698357 269.60288833 19.79384899 269.62012768 C16.8589849 269.63126516 13.92416567 269.63327411 10.98928261 269.63274574 C9.58390981 269.63392391 8.17853579 269.63833654 6.77318382 269.64607811 C4.80348495 269.65590962 2.83373134 269.65172755 0.86401367 269.64697266 C-0.81571281 269.64911018 -0.81571281 269.64911018 -2.52937317 269.65129089 C-6.39228321 269.33478445 -9.29079739 268.43583077 -12.296875 265.96655273 C-14.52555085 263.18070792 -14.67269879 260.53793533 -14.67830276 257.11609173 C-14.68214391 256.23600309 -14.68598505 255.35591445 -14.6899426 254.44915646 C-14.68907612 253.48146874 -14.68820963 252.51378101 -14.68731689 251.51676941 C-14.69028802 250.48938433 -14.69325914 249.46199926 -14.6963203 248.4034813 C-14.70502532 244.94427236 -14.70651707 241.48509795 -14.70800781 238.02587891 C-14.71263469 235.5524437 -14.71765917 233.07900921 -14.72305298 230.60557556 C-14.73619104 223.87415874 -14.74266116 217.14275549 -14.74706364 210.41132903 C-14.74982584 206.20861354 -14.75406315 202.00590035 -14.75856781 197.80318642 C-14.77076053 186.16824965 -14.78105989 174.53331472 -14.7844429 162.8983717 C-14.78466247 162.1536484 -14.78488203 161.4089251 -14.78510825 160.64163442 C-14.78532653 159.89512459 -14.78554481 159.14861475 -14.7857697 158.3794834 C-14.78621317 156.86675846 -14.78665973 155.35403353 -14.78710938 153.84130859 C-14.7873308 153.09094404 -14.78755223 152.34057948 -14.78778037 151.56747661 C-14.79172861 139.40815677 -14.8091834 127.24889686 -14.8324689 115.08960017 C-14.85618001 102.60735685 -14.86864464 90.12514361 -14.86981082 77.6428774 C-14.87072771 70.63392169 -14.87648347 63.62504406 -14.89463043 56.61610985 C-14.91163704 50.02436823 -14.91328583 43.43274874 -14.90449142 36.84098244 C-14.90371894 34.41982247 -14.90809141 31.99865466 -14.91794968 29.57751465 C-14.93060718 26.27559391 -14.92482577 22.97420364 -14.91436768 19.67228699 C-14.92242408 18.71129142 -14.93048048 17.75029586 -14.93878102 16.76017922 C-14.90016442 11.55700033 -14.4850826 7.89247365 -11.546875 3.40405273 C-7.77806566 0.34419209 -4.77727451 0.02251729 0 0 Z " fill="#2B6630" transform="translate(408.546875,546.595947265625)"/>
<path d="M0 0 C0.66569504 -0.0087616 1.33139008 -0.01752319 2.01725769 -0.02655029 C4.20683948 -0.04846803 6.39438389 -0.03402212 8.58398438 -0.01708984 C10.11186102 -0.02046026 11.63973505 -0.02531476 13.16760254 -0.03158569 C16.36541338 -0.03894656 19.56252458 -0.02827804 22.76025391 -0.00488281 C26.85296568 0.02360592 30.9440381 0.00719753 35.03668976 -0.02274513 C38.19041222 -0.04084021 41.34374799 -0.03505027 44.4974823 -0.02210617 C46.00612076 -0.01877819 47.5147947 -0.02283789 49.02339172 -0.03450394 C51.1350255 -0.04725092 53.24403017 -0.02778986 55.35546875 0 C56.55506226 0.00397797 57.75465576 0.00795593 58.99060059 0.01205444 C63.07955319 0.82662661 64.55995958 2.47962073 67.17773438 5.64697266 C68.64133387 8.57417164 68.32217647 11.51664326 68.31817627 14.72529602 C68.32114739 15.46260002 68.32411851 16.19990402 68.32717967 16.95955056 C68.33588733 19.44301575 68.33737666 21.92643284 68.33886719 24.40991211 C68.34349391 26.18532413 68.34851838 27.96073516 68.35391235 29.73614502 C68.3670527 34.56885243 68.37348454 39.40154594 68.37792301 44.23426843 C68.38085121 47.25184012 68.38495554 50.26940799 68.38942719 53.28697777 C68.40310666 62.72323156 68.41277101 72.15947664 68.41662908 81.59573966 C68.42111056 92.49775198 68.43866078 103.39963896 68.46762967 114.30161315 C68.48922975 122.72204672 68.49933247 131.14244498 68.50067019 139.56290597 C68.50171946 144.59498321 68.50765299 149.62694272 68.52548981 154.65899086 C68.54194148 159.3925099 68.54414014 164.12582234 68.5353508 168.85935974 C68.53457885 170.59721618 68.53894382 172.3350836 68.54880905 174.07291222 C68.56148423 176.44475495 68.55567628 178.81586105 68.54522705 181.18769836 C68.55731166 182.22019816 68.55731166 182.22019816 68.5696404 183.27355653 C68.52540489 187.564411 67.80478336 190.23985153 65.17773438 193.64697266 C61.56827372 196.05327976 59.87864644 195.91540517 55.58251953 195.95336914 C54.91711655 195.96169266 54.25171356 195.97001617 53.56614685 195.97859192 C51.366304 196.00268825 49.1667577 196.01146346 46.96679688 196.01806641 C45.43606477 196.02703322 43.90533357 196.03615508 42.37460327 196.04542542 C39.16507843 196.06191707 35.95565793 196.06961579 32.74609375 196.07250977 C28.63777655 196.07789313 24.53044285 196.11556892 20.42240334 196.16125393 C17.26018717 196.19102983 14.09820766 196.19823342 10.93586349 196.19923592 C9.42159903 196.20343743 7.90733382 196.21586922 6.39320755 196.23675346 C4.2719872 196.26368155 2.15304358 196.25884143 0.03173828 196.24633789 C-1.17388763 196.25140854 -2.37951355 196.25647919 -3.62167358 196.26170349 C-7.86437823 195.44681633 -9.14669572 194.00453644 -11.82226562 190.64697266 C-12.31607163 187.90760935 -12.50060437 185.78830527 -12.45718384 183.05603027 C-12.46498379 182.29982879 -12.47278374 181.54362731 -12.48082006 180.76451063 C-12.50073888 178.234599 -12.48497712 175.70619189 -12.46923828 173.17626953 C-12.47601449 171.36099876 -12.48491764 169.54573487 -12.49578857 167.73048401 C-12.51858811 162.80274422 -12.50974285 157.87552767 -12.49389315 152.9477787 C-12.48123758 147.79179088 -12.49297331 142.63584797 -12.50082397 137.4798584 C-12.50992153 128.82112582 -12.4979298 120.16260646 -12.47412109 111.50390625 C-12.44690966 101.49207139 -12.45572375 91.48074562 -12.48325312 81.46892309 C-12.50594013 72.87429111 -12.50914625 64.27981241 -12.49605978 55.68516016 C-12.48826304 50.55136933 -12.48722985 45.41781783 -12.50374222 40.28404236 C-12.51818173 35.45755612 -12.50817472 30.63172647 -12.47927094 25.8053112 C-12.47265735 24.03360523 -12.47456248 22.26184403 -12.48558426 20.49015999 C-12.49924131 18.07199818 -12.48212494 15.65594245 -12.45718384 13.23791504 C-12.46833745 12.53606441 -12.47949106 11.83421378 -12.49098265 11.11109495 C-12.4148252 7.3069425 -11.88446915 5.72497007 -9.4817791 2.71222115 C-6.11241419 0.09573664 -4.23688491 0.01404991 0 0 Z " fill="#2B6630" transform="translate(301.822265625,619.35302734375)"/>
<path d="M0 0 C4.88920729 2.39847905 7.42118042 5.24581254 10 10 C10.45828011 12.98214669 10.38254778 15.86718494 10.25 18.875 C10.23195313 19.65875 10.21390625 20.4425 10.1953125 21.25 C10.14855148 23.16720189 10.07682003 25.08376715 10 27 C11.155 27.165 12.31 27.33 13.5 27.5 C27.36710956 30.61571133 40.06940716 38.73290588 47.875 50.5625 C48.93891874 52.36202844 49.98335608 54.1733471 51 56 C51.54333984 56.92619141 51.54333984 56.92619141 52.09765625 57.87109375 C54.72308977 62.96321365 54.6056824 68.43949905 54 74 C52.61708988 78.14873036 50.51068095 81.36625836 47.00390625 84.08203125 C42.56488111 86.11550281 37.72894152 85.69409704 33 85 C27.91345612 82.67982209 26.03230706 80.12915592 24 75 C23.51675347 73.48045812 23.03782132 71.95953954 22.5625 70.4375 C20.48729508 64.18044274 17.86366835 61.28085354 12 58.25 C2.66242145 53.75202009 -8.52195172 53.54704606 -18.5703125 55.80078125 C-25.77012205 58.47999427 -30.67106687 62.66671153 -35 69 C-36.98568289 74.95704868 -37.39473866 83.15095678 -34.625 88.9375 C-27.32778687 99.20953521 -12.16635505 101.37136001 -0.69091797 103.75146484 C19.72841647 107.99069262 40.48641133 114.02312419 52.8125 132.25 C60.01466316 144.47692816 62.28814988 157.42397998 59.1171875 171.29296875 C55.43344148 185.10621061 47.33030753 196.56467878 35.1875 204.25 C27.11327285 208.79484872 19.23987396 211.39410663 10 212 C10.04640625 213.00160156 10.0928125 214.00320313 10.140625 215.03515625 C10.58351794 228.54933002 10.58351794 228.54933002 6 234 C2.11495473 237.64958798 -2.24182339 237.49964179 -7.3359375 237.35546875 C-11.08369069 236.85540198 -13.24202151 235.5458263 -16 233 C-18.77926884 229.12989185 -18.22318438 224.80424471 -18.125 220.25 C-18.11597656 219.45722656 -18.10695313 218.66445313 -18.09765625 217.84765625 C-18.07417012 215.89830719 -18.03830137 213.94911425 -18 212 C-19.05960938 211.85820313 -20.11921875 211.71640625 -21.2109375 211.5703125 C-36.37455488 209.2879536 -50.09318834 201.71701044 -59.80859375 189.77734375 C-65.08925619 182.31067142 -69.08230637 174.27691174 -68 165 C-65.99703332 159.32492775 -62.38649821 155.69324911 -57 153 C-51.80760287 152.59275317 -47.39328214 153.0906851 -43 156 C-41.21284326 158.25705113 -40.05886189 160.69835002 -38.875 163.3125 C-33.57362668 174.5252373 -27.05258435 180.04738574 -15.25 184.375 C-3.59680289 186.66274422 9.15165608 185.72655856 19.4453125 179.52734375 C25.39736173 174.88210975 28.20067267 169.02910115 29.375 161.640625 C29.68637663 155.99692361 28.19491974 151.63369154 25 147 C16.52242947 138.00863732 2.09561635 136.09039908 -9.4375 133.5 C-26.52309094 129.65408432 -42.7983772 125.55735867 -55 112 C-55.49113281 111.47792969 -55.98226562 110.95585938 -56.48828125 110.41796875 C-66.37616639 99.5486558 -67.68734601 87.38671987 -67.36328125 73.20703125 C-66.71086744 60.38237395 -59.84310133 49.19993129 -50.49951172 40.62255859 C-41.66300176 33.14680931 -30.01361122 25.57920801 -18 26 C-18.04640625 24.84242188 -18.0928125 23.68484375 -18.140625 22.4921875 C-18.17816248 20.95315094 -18.21456051 19.4140863 -18.25 17.875 C-18.28351562 17.11445312 -18.31703125 16.35390625 -18.3515625 15.5703125 C-18.44408814 10.20382538 -17.53691074 7.27295294 -14 3 C-9.79408994 -0.60506577 -5.30826969 -0.83469258 0 0 Z " fill="#2B6730" transform="translate(692,538)"/>
<path d="M0 0 C1.28505936 -0.01283524 2.57011871 -0.02567047 3.89411926 -0.03889465 C5.30400203 -0.04706222 6.71388914 -0.05450592 8.1237793 -0.0612793 C8.83282095 -0.06535482 9.5418626 -0.06943035 10.27239037 -0.07362938 C14.0258289 -0.09449071 17.77923087 -0.10879167 21.53271484 -0.11816406 C25.4066102 -0.12922422 29.27993046 -0.16361849 33.15362263 -0.20333576 C36.13481197 -0.22950282 39.11586435 -0.23785596 42.09715843 -0.24144554 C43.52489287 -0.24631194 44.95262116 -0.25792766 46.3802433 -0.27648354 C48.38095863 -0.30087022 50.38195366 -0.29749063 52.3828125 -0.29296875 C54.08918633 -0.30176811 54.08918633 -0.30176811 55.83003235 -0.31074524 C59.5562539 0.28407541 61.20657376 1.57319318 63.88549805 4.17700195 C65.12016456 6.64633497 65.02226818 8.29067418 65.03939819 11.05342102 C65.04799866 12.0838855 65.05659912 13.11434998 65.06546021 14.17604065 C65.06972015 15.31113571 65.0739801 16.44623077 65.07836914 17.61572266 C65.09063538 19.40364731 65.09063538 19.40364731 65.10314941 21.22769165 C65.1280342 25.18604185 65.14467684 29.14438461 65.15893555 33.1027832 C65.16429527 34.46533909 65.16967278 35.82789492 65.1750679 37.19045067 C65.19669639 42.8582343 65.21543317 48.52601508 65.22669029 54.19382954 C65.24293028 62.31706425 65.27610871 70.43982069 65.33309114 78.56287509 C65.3717898 84.27419903 65.39132284 89.98539505 65.39661086 95.69684666 C65.40026452 99.10824301 65.41228568 102.51912925 65.44471359 105.93038368 C65.47621406 109.73732783 65.47642382 113.54305824 65.46899414 117.35009766 C65.48539948 118.47912003 65.50180481 119.6081424 65.51870728 120.77137756 C65.45743749 128.42357331 65.45743749 128.42357331 62.47402954 132.35368347 C58.56158711 135.10954277 56.54688643 135.31258827 51.77099609 135.35400391 C50.48593674 135.36683914 49.20087738 135.37967438 47.87687683 135.39289856 C46.46699407 135.40106613 45.05710695 135.40850983 43.6472168 135.4152832 C42.93817514 135.41935873 42.22913349 135.42343426 41.49860573 135.42763329 C37.7451672 135.44849461 33.99176522 135.46279558 30.23828125 135.47216797 C26.36438589 135.48322812 22.49106563 135.5176224 18.61737347 135.55733967 C15.63618413 135.58350673 12.65513174 135.59185986 9.67383766 135.59544945 C8.24610323 135.60031585 6.81837493 135.61193156 5.39075279 135.63048744 C3.39003747 135.65487413 1.38904243 135.65149454 -0.61181641 135.64697266 C-1.74939896 135.6528389 -2.88698151 135.65870514 -4.05903625 135.66474915 C-7.78525781 135.06992849 -9.43557766 133.78081072 -12.11450195 131.17700195 C-13.34916846 128.70766893 -13.25127209 127.06332973 -13.2684021 124.30058289 C-13.27700256 123.27011841 -13.28560303 122.23965393 -13.29446411 121.17796326 C-13.29872406 120.04286819 -13.30298401 118.90777313 -13.30737305 117.73828125 C-13.31555054 116.54633148 -13.32372803 115.35438171 -13.33215332 114.12631226 C-13.35703811 110.16796205 -13.37368075 106.2096193 -13.38793945 102.2512207 C-13.39329918 100.88866481 -13.39867669 99.52610899 -13.40407181 98.16355324 C-13.4257003 92.49576961 -13.44443707 86.82798883 -13.4556942 81.16017437 C-13.47193419 73.03693966 -13.50511262 64.91418322 -13.56209505 56.79112881 C-13.60079371 51.07980487 -13.62032674 45.36860886 -13.62561476 39.65715724 C-13.62926843 36.24576089 -13.64128958 32.83487466 -13.6737175 29.42362022 C-13.70521797 25.61667608 -13.70542773 21.81094567 -13.69799805 18.00390625 C-13.71440338 16.87488388 -13.73080872 15.74586151 -13.74771118 14.58262634 C-13.6864414 6.9304306 -13.6864414 6.9304306 -10.70303345 3.00032043 C-6.79059102 0.24446113 -4.77589034 0.04141564 0 0 Z " fill="#2B6630" transform="translate(198.114501953125,680.822998046875)"/>
<path d="M0 0 C1.57183044 -0.00945648 1.57183044 -0.00945648 3.17541504 -0.019104 C4.30153198 -0.01505554 5.42764893 -0.01100708 6.58789062 -0.00683594 C8.32975647 -0.00970612 8.32975647 -0.00970612 10.10681152 -0.01263428 C12.5612815 -0.01399489 15.0157587 -0.01030708 17.47021484 -0.00195312 C21.22965644 0.00874783 24.98862016 -0.0018529 28.74804688 -0.01464844 C31.13216251 -0.01332682 33.51627786 -0.01076439 35.90039062 -0.00683594 C37.02650757 -0.0108844 38.15262451 -0.01493286 39.31286621 -0.019104 C40.36075317 -0.01279968 41.40864014 -0.00649536 42.48828125 0 C43.86916931 0.00238678 43.86916931 0.00238678 45.2779541 0.00482178 C48.95438491 0.38341972 50.92000217 1.39714503 53.46888733 4.06202698 C55.00578058 6.70949226 55.12988123 8.3572878 55.14819336 11.40698242 C55.16087753 12.43162094 55.17356171 13.45625946 55.18663025 14.51194763 C55.18369461 15.61305374 55.18075897 16.71415985 55.17773438 17.84863281 C55.18297623 18.98530899 55.18821808 20.12198517 55.19361877 21.29310608 C55.20004052 23.69629093 55.19870005 26.0995072 55.19018555 28.50268555 C55.18168035 32.17911801 55.21042965 35.85399467 55.2421875 39.53027344 C55.24379971 41.86555943 55.24322161 44.20084817 55.24023438 46.53613281 C55.25146835 47.63521469 55.26270233 48.73429657 55.27427673 49.86668396 C55.2049116 57.46642896 55.2049116 57.46642896 52.90063477 61.42895508 C49.55605994 64.26690236 46.77239274 64.39344163 42.54174805 64.45166016 C40.94945625 64.47575455 40.94945625 64.47575455 39.32499695 64.50033569 C34.47537923 64.54483678 29.62589718 64.58584149 24.77612305 64.60888672 C22.21841335 64.62545409 19.6607501 64.65275395 17.10327148 64.69091797 C13.4143066 64.74567511 9.72642589 64.76755931 6.03710938 64.78222656 C4.32590157 64.81623062 4.32590157 64.81623062 2.5801239 64.85092163 C-6.27462271 64.82735793 -6.27462271 64.82735793 -9.96166992 61.85107422 C-12.97454024 58.44672634 -13.38270683 56.94722711 -13.43286133 52.52124023 C-13.45211418 51.04411812 -13.45211418 51.04411812 -13.47175598 49.53715515 C-13.47914291 48.46947403 -13.48652985 47.40179291 -13.49414062 46.30175781 C-13.50221237 45.20664383 -13.51028412 44.11152985 -13.51860046 42.98323059 C-13.53244842 40.66225776 -13.54316738 38.34126451 -13.55102539 36.02026367 C-13.56823892 32.47112423 -13.61211997 28.9229159 -13.65625 25.37402344 C-13.66637662 23.12077509 -13.67489282 20.86751881 -13.68164062 18.61425781 C-13.69914871 17.55264938 -13.7166568 16.49104095 -13.73469543 15.39726257 C-13.71308306 8.05266308 -13.71308306 8.05266308 -11.47924805 4.17407227 C-7.7087031 0.92602954 -4.96994826 0.00859025 0 0 Z " fill="#2B6630" transform="translate(383.255859375,450.7412109375)"/>
<path d="M0 0 C1.50231171 -0.01441132 1.50231171 -0.01441132 3.03497314 -0.02911377 C4.66459991 -0.03548859 4.66459991 -0.03548859 6.32714844 -0.04199219 C7.44208679 -0.04769226 8.55702515 -0.05339233 9.70574951 -0.05926514 C12.06961109 -0.06872538 14.43348591 -0.07525317 16.79736328 -0.07910156 C20.40778787 -0.08879008 24.01763922 -0.11979749 27.62792969 -0.15136719 C29.92349922 -0.15789882 32.21907283 -0.16314866 34.51464844 -0.16699219 C36.13212982 -0.18551239 36.13212982 -0.18551239 37.7822876 -0.20440674 C47.61003169 -0.17532422 47.61003169 -0.17532422 52.18652344 3.16113281 C56.38972088 7.68512984 55.65415602 13.556017 55.65527344 19.37597656 C55.66669373 21.00872276 55.66669373 21.00872276 55.67834473 22.67445374 C55.68913591 24.97329416 55.69200284 27.27218358 55.6875 29.57104492 C55.68652776 33.08302759 55.7281621 36.59282485 55.77246094 40.10449219 C55.77766819 42.34081577 55.78035613 44.57714692 55.78027344 46.81347656 C55.7966687 47.86051254 55.81306396 48.90754852 55.82995605 49.98631287 C55.7530603 58.1213259 55.7530603 58.1213259 52.83691406 61.80786133 C49.23324382 65.00754606 46.71033189 65.2889847 42.06005859 65.35400391 C41.01532379 65.37006683 39.97058899 65.38612976 38.89419556 65.40267944 C34.1264108 65.44715624 29.35876388 65.48817585 24.59082031 65.51123047 C22.07477583 65.52780906 19.5587788 65.55512363 17.04296875 65.59326172 C13.41609253 65.64795497 9.79031868 65.66989203 6.16308594 65.68457031 C4.47694687 65.71857437 4.47694687 65.71857437 2.75674438 65.75326538 C-5.93146898 65.7297061 -5.93146898 65.7297061 -8.99951172 62.69091797 C-9.59812012 61.85608887 -10.19672852 61.02125977 -10.81347656 60.16113281 C-11.14347656 59.83113281 -11.47347656 59.50113281 -11.81347656 59.16113281 C-11.93291579 57.56705847 -11.98359522 55.96776553 -12.00634766 54.36938477 C-12.02241058 53.34774734 -12.03847351 52.32610992 -12.05502319 51.27351379 C-12.0993673 46.58184338 -12.14056133 41.89031736 -12.16357422 37.19848633 C-12.18011657 34.72410668 -12.20738346 32.24977448 -12.24560547 29.77563477 C-12.30039766 26.21247498 -12.32225562 22.65043856 -12.33691406 19.08691406 C-12.35958344 17.98358231 -12.38225281 16.88025055 -12.40560913 15.7434845 C-12.382039 7.16408091 -12.382039 7.16408091 -9.40576172 3.47827148 C-5.9757643 0.41233576 -4.47930841 0.03461883 0 0 Z " fill="#2B6630" transform="translate(491.8134765625,449.8388671875)"/>
<path d="M0 0 C1.17823837 -0.00241196 2.35647675 -0.00482391 3.57041931 -0.00730896 C6.05585097 -0.00633137 8.54130463 0.00704085 11.02661133 0.03198242 C14.83034169 0.06632047 18.63175233 0.05262655 22.43554688 0.03320312 C24.85287447 0.04010082 27.27019607 0.0497725 29.6875 0.0625 C31.39233299 0.0550602 31.39233299 0.0550602 33.13160706 0.04747009 C41.00178203 0.1648975 41.00178203 0.1648975 44.97045898 2.53930664 C47.69089639 5.68539821 47.91444791 7.47001884 47.98608398 11.55004883 C48.0053746 12.57483841 48.02466522 13.59962799 48.04454041 14.6554718 C48.10217222 19.34425436 48.15155071 24.03288185 48.18237305 28.72192383 C48.20397453 31.19634946 48.23810216 33.67069826 48.28491211 36.14477539 C48.35175475 39.70884389 48.3793472 43.27133145 48.3984375 46.8359375 C48.42626816 47.94129349 48.45409882 49.04664948 48.48277283 50.1855011 C48.46966527 55.07157644 48.38594327 57.76883724 45.51611328 61.82446289 C40.71039732 64.90208712 34.83215351 64.34107306 29.3359375 64.29296875 C27.53528587 64.3001442 27.53528587 64.3001442 25.69825745 64.3074646 C23.16576829 64.31086072 20.63323513 64.30167872 18.10083008 64.28076172 C14.22443017 64.2539725 10.35091998 64.2805355 6.47460938 64.3125 C4.01171236 64.30919632 1.54881714 64.30279095 -0.9140625 64.29296875 C-2.07249161 64.3030899 -3.23092072 64.31321106 -4.42445374 64.32363892 C-9.10998784 64.25534971 -12.31496607 64.13469002 -16.44824219 61.83154297 C-19.18126081 56.89872262 -18.95657919 52.27712863 -18.921875 46.72265625 C-18.9290303 45.56519897 -18.93618561 44.4077417 -18.94355774 43.21520996 C-18.95133337 40.77092255 -18.9463257 38.32656569 -18.92944336 35.88232422 C-18.91022133 32.14157214 -18.94960533 28.40453546 -18.99414062 24.6640625 C-18.99443098 22.2877582 -18.99129101 19.9114505 -18.984375 17.53515625 C-18.99965744 16.41733765 -19.01493988 15.29951904 -19.03068542 14.14782715 C-18.95695099 9.23737434 -18.83529985 6.48866384 -15.93896484 2.42407227 C-11.19072303 -0.61545802 -5.43048512 -0.06346103 0 0 Z " fill="#2B6630" transform="translate(607.22265625,355.37109375)"/>
<path d="M0 0 C1.59735992 -0.01925285 1.59735992 -0.01925285 3.22698975 -0.03889465 C4.96749603 -0.04997505 4.96749603 -0.04997505 6.74316406 -0.0612793 C8.52113373 -0.07338692 8.52113373 -0.07338692 10.33502197 -0.08573914 C12.85028613 -0.09960118 15.36556927 -0.11031379 17.88085938 -0.11816406 C21.72855352 -0.1353629 25.57538574 -0.17923015 29.42285156 -0.22338867 C31.86294939 -0.23351618 34.30305455 -0.2420321 36.74316406 -0.2487793 C37.89540466 -0.26628738 39.04764526 -0.28379547 40.23480225 -0.30183411 C48.23859456 -0.28010297 48.23859456 -0.28010297 52.21289062 2.07861328 C54.89722364 5.21507906 55.14082644 6.95721291 55.18579102 11.00634766 C55.20504387 12.5135009 55.20504387 12.5135009 55.22468567 14.05110168 C55.2320726 15.14065659 55.23945953 16.23021149 55.24707031 17.3527832 C55.25514206 18.47009323 55.26321381 19.58740326 55.27153015 20.73857117 C55.28537853 23.10662276 55.2960973 25.47469439 55.30395508 27.84277344 C55.32116943 31.46433333 55.36505035 35.08498095 55.40917969 38.70629883 C55.41930621 41.00512023 55.42782244 43.3039494 55.43457031 45.6027832 C55.4520784 46.68626541 55.46958649 47.76974762 55.48762512 48.88606262 C55.46590135 56.41718262 55.46590135 56.41718262 53.10717773 60.33789062 C49.89974028 63.14901644 48.08944832 63.31016192 43.90405273 63.35400391 C42.30680611 63.37325676 42.30680611 63.37325676 40.67729187 63.39289856 C39.52211563 63.40028549 38.36693939 63.40767242 37.17675781 63.4152832 C35.99285965 63.42335495 34.80896149 63.4314267 33.58918762 63.43974304 C31.07989979 63.45359259 28.57059305 63.46431083 26.0612793 63.47216797 C22.22245622 63.4893846 18.38449324 63.53326513 14.54589844 63.57739258 C12.11035791 63.58751884 9.67481004 63.59603515 7.23925781 63.6027832 C5.51560249 63.62904533 5.51560249 63.62904533 3.75712585 63.65583801 C-4.22153933 63.63411001 -4.22153933 63.63411001 -8.19311523 61.27539062 C-10.87676947 58.14354973 -11.12539794 56.39283748 -11.18408203 52.34765625 C-11.20014496 51.34288742 -11.21620789 50.33811859 -11.23275757 49.30290222 C-11.27716199 44.70568472 -11.31827032 40.1086122 -11.34130859 35.51123047 C-11.35787414 33.08535167 -11.38517169 30.6595218 -11.42333984 28.23388672 C-11.47805633 24.73940667 -11.49997535 21.24607122 -11.51464844 17.7512207 C-11.53731781 16.66773849 -11.55998718 15.58425629 -11.58334351 14.46794128 C-11.55978127 6.08299106 -11.55978127 6.08299106 -8.52099609 3.01611328 C-7.68616699 2.40920654 -6.85133789 1.8022998 -5.99121094 1.17700195 C-4.32168428 -0.4925247 -2.29404044 0.02397341 0 0 Z " fill="#2B6730" transform="translate(490.9912109375,355.822998046875)"/>
<path d="M0 0 C4.46279226 2.15170341 7.2358803 4.90500786 10 9 C11.15968983 12.42979307 11.13933328 15.72519207 11.16113281 19.32568359 C11.17074036 20.6073642 11.1803479 21.8890448 11.19024658 23.20956421 C11.19509464 24.60585349 11.19937345 26.00214484 11.203125 27.3984375 C11.20888111 28.83566285 11.21463878 30.27288819 11.22039795 31.71011353 C11.23089015 34.72113399 11.23674459 37.7321279 11.24023438 40.74316406 C11.24571825 44.59213683 11.26975118 48.4407557 11.29820633 52.28961754 C11.3168737 55.25797538 11.32204046 58.22624861 11.32357025 61.19466019 C11.3265876 62.61317506 11.33458505 64.03168878 11.34775543 65.45014572 C11.36490137 67.43853445 11.36107856 69.42707009 11.35644531 71.41552734 C11.36191376 73.10952164 11.36191376 73.10952164 11.36749268 74.83773804 C10.87502567 79.07539989 9.41899304 82.44099965 6.53515625 85.609375 C1.55654816 89.46548524 -1.42109176 91.5055995 -7.9140625 91.3125 C-13.00810519 90.54934754 -16.59633171 87.70794173 -19.875 83.875 C-22.90657722 79.77345435 -23.13096416 77.8929942 -23.16113281 72.82543945 C-23.17074036 71.52681473 -23.1803479 70.22819 -23.19024658 68.89021301 C-23.19509583 67.46457088 -23.19937435 66.0389267 -23.203125 64.61328125 C-23.20887807 63.15317279 -23.21463579 61.69306435 -23.22039795 60.23295593 C-23.23091191 57.16710051 -23.23675122 54.10127132 -23.24023438 51.03540039 C-23.24570406 47.11921019 -23.26969725 43.20337032 -23.29820633 39.28728962 C-23.31689711 36.26827508 -23.32204183 33.2493436 -23.32357025 30.23027611 C-23.32658546 28.78746829 -23.33457557 27.34466155 -23.34775543 25.90191078 C-23.48299131 9.95270769 -23.48299131 9.95270769 -18.46484375 4.2578125 C-12.21059192 -0.3808909 -7.74948594 -0.73031805 0 0 Z " fill="#2B6730" transform="translate(395,153)"/>
<path d="M0 0 C5.505512 2.20408061 7.67550106 5.64271205 10 11 C10.38095093 14.22473145 10.38095093 14.22473145 10.38818359 17.73632812 C10.39344055 18.38105576 10.39869751 19.02578339 10.40411377 19.69004822 C10.41723015 21.80403455 10.40860628 23.91725709 10.3984375 26.03125 C10.40046066 27.51045881 10.40337411 28.98966665 10.40713501 30.46887207 C10.41154701 33.56219013 10.40516386 36.65524751 10.39111328 39.74853516 C10.37402177 43.70288089 10.38386903 47.65661567 10.40183067 51.61093903 C10.41269912 54.66339679 10.40920822 57.715711 10.4014473 60.76817322 C10.39945373 62.22574436 10.40187478 63.68332876 10.40888596 65.1408844 C10.41655139 67.18216207 10.40482711 69.22246625 10.38818359 71.26367188 C10.38579681 72.42249878 10.38341003 73.58132568 10.38095093 74.77526855 C9.8730573 79.0745639 8.43362766 82.46423093 5.46484375 85.64453125 C-0.76876612 90.41140939 -5.20194201 90.72468864 -13 90 C-17.97656543 87.68945176 -20.3105858 84.71596804 -23 80 C-23.50793457 76.66137695 -23.50793457 76.66137695 -23.51757812 72.98828125 C-23.5245874 72.31429291 -23.53159668 71.64030457 -23.53881836 70.94589233 C-23.55631771 68.73433323 -23.54480598 66.52407043 -23.53125 64.3125 C-23.53394727 62.76602942 -23.53783165 61.2195605 -23.54284668 59.6730957 C-23.54873075 56.43847441 -23.54021455 53.20429618 -23.52148438 49.96972656 C-23.49869485 45.83363067 -23.51182388 41.6985731 -23.53577423 37.56251526 C-23.55026213 34.37105556 -23.54561266 31.17984006 -23.53526306 27.9883728 C-23.53260401 26.46381506 -23.53583655 24.93923479 -23.54518127 23.41470337 C-23.55539712 21.27978199 -23.53977939 19.14651742 -23.51757812 17.01171875 C-23.51439575 15.79959717 -23.51121338 14.58747559 -23.50793457 13.33862305 C-22.73081124 8.23063867 -20.19588171 5.16521808 -16.5625 1.625 C-11.08700612 -0.8725937 -5.91346632 -0.84688497 0 0 Z " fill="#2B6730" transform="translate(644,153)"/>
<path d="M0 0 C0 6.28030491 -7.18006182 11.21842034 -11.42651367 15.49023438 C-13.60806651 17.67002477 -15.80151187 19.83729197 -18 22 C-18.66 21.67 -19.32 21.34 -20 21 C-19.60731934 20.61255615 -19.21463867 20.2251123 -18.81005859 19.82592773 C-16.99561799 18.03254808 -15.18530373 16.23505511 -13.375 14.4375 C-12.75753906 13.82841797 -12.14007812 13.21933594 -11.50390625 12.59179688 C-7.44806028 8.55729746 -3.67094475 4.38819088 0 0 Z " fill="#181322" transform="translate(824,765)"/>
</svg>
