<?xml version="1.0" standalone="no"?>
<!DOCTYPE svg PUBLIC "-//W3C//DTD SVG 1.1//EN" "http://www.w3.org/Graphics/SVG/1.1/DTD/svg11.dtd">
<svg xmlns="http://www.w3.org/2000/svg">
<metadata>Copyright (C) 2025 by original authors @ fontello.com</metadata>
<defs>
<font id="fontello" horiz-adv-x="1000" >
<font-face font-family="fontello" font-weight="400" font-stretch="normal" units-per-em="1000" ascent="850" descent="-150" />
<missing-glyph horiz-adv-x="1000" />
<glyph glyph-name="icn_web_vendor_outline_filter" unicode="&#xe800;" d="M382 228c21 0 39-15 43-35l1-8v-160c0-24-20-44-44-44-24 0-44 20-44 44v36h-107c-24 0-44 19-44 43 0 24 20 44 44 44h107v37l1 8c4 20 22 35 43 35z m510-80c20-4 35-22 35-43 0-21-15-39-35-43l-8-1h-344c-24 0-44 20-44 44 0 24 20 44 44 44h344l8-1z m-230 325c22 0 39-15 43-35l1-8v-160c0-24-19-43-44-43-24 0-43 19-43 43v36h-388c-24 0-44 20-44 44 0 24 20 44 44 44h388v36l1 8c4 20 21 35 42 35z m231-80c19-4 34-22 34-43 0-21-15-39-34-43l-9-1h-64c-25 0-44 20-44 44 0 24 19 44 44 44h64l9-1z m-371 326c21 0 39-15 43-35l1-9v-78c0-1 0-1 0-2 0 0 0-1 0-1v-78c0-25-20-44-44-44-24 0-44 19-44 44v35h-247c-24 0-44 20-44 44 0 24 20 44 44 44h247v36l1 9c4 20 22 35 43 35z m370-81c20-4 35-22 35-43 0-21-15-39-35-43l-8-1h-202c-24 0-44 20-44 44 0 24 20 44 44 44h202l8-1z" horiz-adv-x="1063" />

<glyph glyph-name="icn_web_vendor_outline_help" unicode="&#xe801;" d="M540 725c207 0 375-168 375-375 0-207-168-375-375-375-208 0-375 168-375 375 0 207 167 375 375 375z m0-75c-166 0-300-134-300-300 0-166 134-300 300-300 165 0 300 134 300 300 0 166-135 300-300 300z m1-405c13 0 24-5 33-14 9-9 14-20 14-33 0-12-5-23-14-32-9-8-20-13-33-13-14 0-26 5-36 13-9 9-14 20-14 32 0 13 5 24 14 33 10 9 22 14 36 14z m-1 302c32 0 59-9 81-26 22-18 32-41 32-69 0-27-5-47-15-61-11-13-23-25-38-36-12-8-20-15-25-20-5-5-7-10-7-14v-16c0-11-4-19-10-26-6-6-15-9-26-9-11 0-20 3-27 9-7 7-10 15-10 26v16c0 18 6 32 17 42 11 11 21 21 32 28 24 18 36 37 36 55 0 12-4 20-12 26-7 6-17 8-29 8-11 0-20-2-27-7-7-5-11-12-12-22 0-8-4-15-12-21-7-7-16-10-25-10-10 0-19 4-27 11-7 7-10 15-10 24 0 17 5 32 15 46 10 14 24 26 41 34 17 8 37 12 58 12z" horiz-adv-x="1063" />

<glyph glyph-name="icn_web_vendor_outline_more" unicode="&#xe802;" d="M500 183c46 0 83-37 83-83 0-46-37-83-83-83-46 0-83 37-83 83 0 46 37 83 83 83z m0 250c46 0 83-37 83-83 0-46-37-83-83-83-46 0-83 37-83 83 0 46 37 83 83 83z m0 250c46 0 83-37 83-83 0-46-37-83-83-83-46 0-83 37-83 83 0 46 37 83 83 83z" horiz-adv-x="1000" />

<glyph glyph-name="icn_web_vendor_outline_new-request" unicode="&#xe803;" d="M462 651c20-4 35-22 35-43 0-21-15-39-35-43l-9-1h-111c-18 0-29 0-37-1-4 0-6 0-8-1l-1 0c-2-1-3-2-5-3l-3-5c0-1-1-3-1-9-1-8-1-19-1-37v-316c0-18 0-29 1-37 0-6 1-8 1-9l3-5c2-1 3-2 5-3l1 0c2-1 4-1 8-1 8-1 19-1 37-1h316c18 0 29 0 37 1 6 0 8 1 9 1l5 3c1 2 2 3 3 5l0 1c1 2 1 4 1 8 1 8 1 19 1 37v111c0 24 20 44 44 44 24 0 44-20 44-44v-111c0-17 0-32-1-44-1-10-3-21-6-31l-5-10c-9-18-22-33-39-43l-7-4c-14-7-28-9-41-10-13-2-28-2-45-2h-316c-17 0-32 0-44 2-10 0-21 2-31 6l-10 4c-18 9-33 23-43 39l-4 8c-7 13-9 27-10 41-2 12-2 27-2 44v316c0 17 0 32 2 45 1 13 3 27 10 41l4 7c10 17 25 30 43 39l10 5c10 3 21 5 31 6 12 1 27 1 44 1h111l9-1z m249 44c75-8 134-72 134-150 0-82-67-150-150-150-77 0-141 59-149 135l-1 15 1 16c8 75 72 134 149 134l16 0z m-16-87c-34 0-62-28-62-63 0-34 28-62 62-62 35 0 63 28 63 62 0 35-28 63-63 63z" horiz-adv-x="1000" />

<glyph glyph-name="icn_web_vendor_outline_offer" unicode="&#xe804;" d="M703 723c73 0 131-59 131-131v-158c28-7 51-21 67-45 22-35 19-78 19-117v-151c0-30 0-58-12-86-27-52-80-58-132-58h-552c-49 0-99 4-128 51-16 29-16 60-16 93v184c1 33 5 65 25 93 16 18 37 31 61 36v158c0 72 58 131 131 131h406z m114-375c1 0-1 1-13-3-17-6-34-14-51-22l-253-111-253 111c-24 11-40 18-51 22-4 1-8 2-13 3-10-2-13-11-14-20-1-13-1-30-1-56v-151c0-49 6-56 56-56h552c51 0 56 6 56 56v151c0 26 0 43-1 56-1 10-4 17-14 20z m-520 287c-24 0-44-19-44-43v-176c9-4 19-8 29-12l218-97 218 97 29 12v176c0 24-20 43-44 43h-406z m201-118c24 0 44-18 44-44 0-26-21-44-44-44h-79c-24 0-44 20-44 44 0 24 20 44 44 44h79z" horiz-adv-x="1000" />

<glyph glyph-name="icn_web_vendor_outline_on-off" unicode="&#xe805;" d="M365 704c19 8 41-1 49-20 8-19-2-41-21-49-66-27-121-77-154-140-34-63-45-136-31-206 14-71 52-134 107-179 55-46 125-71 196-71 72 0 141 25 197 70 55 46 93 109 107 179 14 70 3 143-30 206-34 64-89 113-155 141-19 8-28 30-20 49 8 19 30 28 49 20 82-34 150-96 192-174 42-79 55-169 38-257-18-87-65-165-134-222-69-56-155-87-244-87-89 0-175 31-244 88-68 56-116 135-133 222-17 87-4 178 38 256 42 79 110 140 193 174z m146 60c21 0 38-16 38-37v-289c0-21-17-38-38-38-20 0-37 17-37 38v289c0 21 17 37 37 37z" horiz-adv-x="1063" />

<glyph glyph-name="icn_web_vendor_outline_person" unicode="&#xe806;" d="M267 308c55 33 117 16 158 1 24-8 49-14 75-14 27 0 52 5 76 14 51 18 108 28 158-1 65-41 135-105 135-189 0-75-60-119-124-142-66-24-153-34-245-34-92 0-179 10-245 34-64 23-124 67-124 142 0 75 61 144 136 189z m422-75c-25 15-58 2-83-6-33-13-69-19-106-19-37 0-73 6-106 19-38 14-65 16-83 6-64-39-92-85-92-114 0-18 13-41 66-60 52-19 128-28 215-28 88 0 163 9 215 28 54 19 66 42 66 60 0 51-54 90-92 114z m-188 524c111 0 200-90 200-201 0-110-89-200-200-200-111 0-201 90-201 200 0 111 90 201 201 201z m0-88c-63 0-113-50-113-113 0-62 50-113 113-113 62 0 113 51 113 113 0 63-51 113-113 113z" horiz-adv-x="1000" />

<glyph glyph-name="icn_web_vendor_outline_plus" unicode="&#xe807;" d="M511 736c21 0 38-16 38-37v-311h311c21 0 38-17 38-38 0-21-17-37-38-37h-311v-312c0-21-17-37-38-37-20 0-37 16-37 37v312h-312c-20 0-37 16-37 37 0 21 17 38 37 38h312v311c0 21 17 37 37 37z" horiz-adv-x="1063" />

<glyph glyph-name="icn_web_vendor_outline_report" unicode="&#xe808;" d="M882 749l2-1c20-4 35-21 35-43 0-21-15-38-35-42l-2-1v-331c0-28 0-51-2-69-1-17-4-34-11-50l-3-7c-12-23-31-43-53-57l-10-5c-18-10-37-13-56-15-19-1-42-1-69-1h-96l102-101 5-7c12-17 10-41-5-55-15-15-38-17-55-6l-7 6-122 121-122-121c-17-18-45-17-62 0-17 17-17 44 0 62l102 101h-96c-27 0-50 0-69 1-17 2-33 5-49 11l-7 4c-23 12-43 30-57 53l-6 9c-9 18-12 37-14 57-1 18-1 41-1 69v331c-21 3-38 21-38 43 0 22 17 41 38 44v0h763v0z m-676-418c0-29 0-48 1-62 2-14 4-20 5-24l5-7c5-7 12-13 20-17l3-2c4-1 10-2 20-3 15-2 34-2 62-2h356c28 0 47 0 62 2 14 1 20 3 23 5l8 4c7 5 13 12 17 20l1 3c2 4 3 10 4 21 1 14 1 33 1 62v331h-588v-331z m449 234c17 11 40 10 55-5 15-15 17-38 6-55l-6-7-153-153c-8-8-19-13-31-13-8 0-17 3-24 8l-6 5-75 74-69-69c-17-17-45-17-62 0-17 17-17 45 0 62l100 100 7 5c7 5 16 8 24 8 12 0 23-5 31-13l74-74 122 122 7 5z" horiz-adv-x="1000" />

<glyph glyph-name="icn_web_vendor_outline_search" unicode="&#xe809;" d="M452 769c203 0 367-164 367-367 0-88-31-168-82-231l121-122 6-7c11-17 9-40-6-55-15-15-38-17-55-5l-7 5-122 123c-62-47-138-75-222-75-202 0-367 165-367 367 0 203 165 367 367 367z m0-87c-154 0-279-125-279-280l0-14c7-143 122-258 265-265l14 0c150 0 272 117 279 265l1 14c0 150-118 272-265 280l-15 0z" horiz-adv-x="1000" />

<glyph glyph-name="icn_web_vendor_outline_stop" unicode="&#xe80a;" d="M675 700c103 0 187-84 187-187v-326c0-103-84-187-187-187h-327c-103 0-186 84-186 187v326c0 103 83 187 186 187h327z m-327-75c-62 0-112-50-112-112v-326c0-62 50-112 112-112h327c62 0 112 50 112 112v326c0 62-50 112-112 112h-327z m311-53c41 0 75-33 75-74v-295c0-42-34-75-75-75h-295c-41 0-75 33-75 75v295c0 41 34 74 75 74h295z m-295-74v-295h295v295h-295z" horiz-adv-x="1063" />

<glyph glyph-name="icn_web_vendor_outline_tag" unicode="&#xe80b;" d="M461 725c18 1 37-1 55-7 21-7 39-19 54-32l0-1 276-276c25-25 39-58 40-93 2-39-14-74-39-100l-200-201c-25-24-58-39-93-40-39-1-74 14-100 39l-1 1-276 276c-13 13-24 29-31 46-8 21-10 42-9 63l0 0 17 184c3 30 15 59 36 81 24 25 55 39 87 43l1 0 183 17z m6-63l-183-16c-19-3-36-11-48-24-11-12-19-27-20-44l-17-182c0-14 1-25 5-36 4-9 10-17 17-24l276-276c16-15 35-23 55-22 19 0 37 8 51 21l199 200c15 16 23 35 22 55-1 19-8 37-22 51l-275 275c-10 9-20 15-31 19-9 3-19 4-29 3z m-105-61c56 0 102-46 102-102 0-56-46-102-102-102-55 0-101 46-101 102 0 56 46 102 101 102z m0-63c-21 0-39-18-39-39 0-21 19-39 39-39 22 0 40 18 40 39 0 21-18 39-40 39z" horiz-adv-x="1063" />

<glyph glyph-name="icn_web_vendor_outline_up" unicode="&#xe80c;" d="M854 211c15-15 15-39 0-53-14-15-38-15-53 0l-289 289-290-289c-15-15-38-15-53 0-15 14-15 38 0 53l343 342 342-342z" horiz-adv-x="1063" />

<glyph glyph-name="icn_web_vendor_skeleton" unicode="&#xe80d;" d="" horiz-adv-x="1063" />

<glyph glyph-name="resize-handle" unicode="&#xe80e;" d="M803 674c20 20 52 20 71 0 20-19 20-51 0-70l-642-642c-19-19-51-19-70 0-20 20-20 51 0 71l641 641z m0-340c20 20 52 20 71 0 20-19 20-51 0-70l-301-302c-20-19-51-19-71 0-19 20-19 52 0 71l301 301z" horiz-adv-x="1000" />

<glyph glyph-name="status-icon_web" unicode="&#xe80f;" d="M508 714c201 0 364-163 364-364 0-201-163-364-364-364-200 0-363 163-363 364 0 201 163 364 363 364z m0-46c-175 0-318-142-318-318 0-176 143-318 318-318 176 0 319 142 319 318 0 176-143 318-319 318z" horiz-adv-x="1045" />

<glyph glyph-name="status-icon_web_1" unicode="&#xe810;" d="M500 714c201 0 364-163 364-364 0-201-163-364-364-364-201 0-364 163-364 364 0 201 163 364 364 364z m0-46c-176 0-318-142-318-318 0-176 142-318 318-318 176 0 318 142 318 318 0 176-142 318-318 318z m129-222c8 6 20 5 28-2 8-8 9-20 3-29l-3-4-193-192-106 106c-9 9-9 24 0 32 8 8 20 9 28 3l4-3 74-74 161 161 4 2z" horiz-adv-x="1000" />

<glyph glyph-name="status-icon_web_2" unicode="&#xe811;" d="M864 350c0-201-163-364-364-364-201 0-364 163-364 364 0 201 163 364 364 364 201 0 364-163 364-364z" horiz-adv-x="1000" />

<glyph glyph-name="checkbox" unicode="&#xe812;" d="M680 481c10 7 23 6 31-3 9-8 10-22 4-31l-4-4-273-273-149 149c-10 10-10 26 0 36 9 9 25 9 35 0l114-114 238 237 4 3z m-5 269c35 0 62 0 84-2 23-2 42-5 59-14l10-6c24-15 43-35 56-60 9-17 12-36 14-59 2-22 2-49 2-84v-350c0-35 0-62-2-84-1-20-4-37-11-52l-3-7c-13-25-32-45-56-60l-10-6c-17-9-36-12-59-14-22-2-49-2-84-2h-350c-35 0-62 0-84 2-22 2-42 5-59 14-25 13-45 32-60 56l-6 10c-9 17-12 37-14 59-2 22-2 49-2 84v350c0 35 0 62 2 84 2 23 5 42 14 59 15 28 38 51 66 66 17 9 37 12 59 14 22 2 49 2 84 2h350z m-350-50c-35 0-60 0-80-2-19-1-31-4-40-9-19-9-34-25-44-44-5-9-8-21-9-40-2-19-2-45-2-80v-350c0-35 0-60 2-80 1-19 4-31 9-40l4-7c9-16 23-29 40-37 9-5 21-8 40-9 20-2 45-2 80-2h350c35 0 61 0 80 2 19 1 31 4 40 9l7 4c16 9 29 23 37 40l3 7c3 8 5 19 6 33 2 20 2 45 2 80v350c0 35 0 61-2 80-1 19-4 31-9 40-8 17-21 31-37 40l-7 4c-9 5-21 8-40 9-19 2-45 2-80 2h-350z" horiz-adv-x="1000" />

<glyph glyph-name="checkbox-1" unicode="&#xe813;" d="M675 750c35 0 62 0 84-2 23-2 42-5 59-14l10-6c24-15 43-35 56-60 9-17 12-36 14-59 2-22 2-49 2-84v-350c0-35 0-62-2-84-1-20-5-37-11-52l-3-7c-13-25-32-45-56-60l-10-6c-17-9-36-12-59-14-22-2-49-2-84-2h-350c-35 0-62 0-84 2-23 2-42 5-59 14-25 13-45 32-60 56l-6 10c-9 17-12 37-14 59-2 22-2 49-2 84v350c0 35 0 62 2 84 2 23 5 42 14 59 15 28 38 51 66 66 17 9 36 12 59 14 22 2 49 2 84 2h350z m-350-50c-35 0-60 0-80-2-19-1-31-4-40-9-19-9-35-25-44-44-5-9-8-21-9-40-2-19-2-45-2-80v-350c0-35 0-60 2-80 1-19 4-31 9-40l4-7c9-16 23-29 40-37 9-5 21-8 40-9 20-2 45-2 80-2h350c35 0 60 0 80 2 19 1 31 4 40 9l7 4c16 9 29 23 37 40l3 7c3 8 5 19 6 33 2 20 2 45 2 80v350c0 35 0 61-2 80-1 19-4 31-9 40-8 17-21 31-37 40l-7 4c-9 5-21 8-40 9-20 2-45 2-80 2h-350z" horiz-adv-x="1000" />

<glyph glyph-name="checkbox-2" unicode="&#xe814;" d="M675 750c35 0 62 0 84-2 23-2 42-5 59-14l10-6c24-15 43-35 56-60 9-17 12-36 14-59 2-22 2-49 2-84v-350c0-35 0-62-2-84-1-20-5-37-11-52l-3-7c-13-25-32-45-56-60l-10-6c-17-9-36-12-59-14-22-2-49-2-84-2h-350c-35 0-62 0-84 2-23 2-42 5-59 14-25 13-45 32-60 56l-6 10c-9 17-12 37-14 59-2 22-2 49-2 84v350c0 35 0 62 2 84 2 23 5 42 14 59 15 28 38 51 66 66 17 9 36 12 59 14 22 2 49 2 84 2h350z m-350-50c-35 0-60 0-80-2-19-1-31-4-40-9-19-9-35-25-44-44-5-9-8-21-9-40-2-19-2-45-2-80v-350c0-35 0-60 2-80 1-19 4-31 9-40l4-7c9-16 23-29 40-37 9-5 21-8 40-9 20-2 45-2 80-2h350c35 0 60 0 80 2 19 1 31 4 40 9l7 4c16 9 29 23 37 40l3 7c3 8 5 19 6 33 2 20 2 45 2 80v350c0 35 0 61-2 80-1 19-4 31-9 40-8 17-21 31-37 40l-7 4c-9 5-21 8-40 9-20 2-45 2-80 2h-350z" horiz-adv-x="1000" />

<glyph glyph-name="checkbox-3" unicode="&#xe815;" d="M100 550c0 70 0 105 14 132 12 23 31 42 54 54 27 14 62 14 132 14h400c70 0 105 0 132-14 23-12 42-31 54-54 14-27 14-62 14-132v-400c0-70 0-105-14-132-12-23-31-42-54-54-27-14-62-14-132-14h-400c-70 0-105 0-132 14-23 12-42 31-54 54-14 27-14 62-14 132v400z" horiz-adv-x="1000" />

<glyph glyph-name="cursor-click" unicode="&#xe816;" d="M399 562c8 2 15 2 22-1l407-132c8-3 14-8 19-14 5-7 8-15 9-23 0-8-2-16-6-23-5-7-11-13-19-16l0 0-128-49 144-144c3-3 5-6 7-10 1-4 2-8 2-12 0-4-1-7-2-11-2-4-4-7-7-10l-32-32c-3-3-7-5-10-7-4-1-8-2-12-2-4 0-8 1-12 2-3 2-7 4-9 7l-144 143-49-127c0 0 0-1 0-1-3-7-9-13-15-18-7-4-14-6-22-6h-2c-9 0-17 3-23 8-7 5-11 12-14 20l-133 406c-2 7-2 15 0 22 1 7 5 14 10 19 6 6 12 9 19 11z m-32-222c3 0 5 0 8-1 2-1 5-2 7-4 2-2 3-4 4-6 2-3 2-5 3-8 0-3-1-5-1-8-1-2-3-5-4-7-2-2-4-3-7-5l-40-20c-5-2-11-3-16-1-5 2-9 5-11 10-3 5-3 11-2 16 2 5 6 9 11 11l40 21c3 1 5 2 8 2z m-19 81c5 0 11-2 14-6 4-4 6-9 6-14 0-6-2-11-6-14-3-4-9-6-14-6h-20c-6 0-11 2-15 6-3 3-6 8-6 14 0 5 3 10 6 14 4 4 9 6 15 6h20z m278 202c5 2 11 2 15-1 5-2 9-7 11-12 1-5 1-10-1-15l-21-41c-1-2-3-4-5-6-2-2-4-3-6-4-3-1-6-1-8-1-3 0-6 1-8 2-2 1-5 3-6 5-2 2-3 4-4 7-1 2-1 5-1 8 0 2 1 5 2 7l20 41c3 5 7 9 12 10z m-95 1c5 0 10-2 14-6 4-3 6-9 6-14v-20c0-6-2-11-6-15-4-3-9-6-14-6-6 0-11 3-15 6-3 4-6 9-6 15v20c1 5 3 11 6 14 4 4 9 6 15 6z" horiz-adv-x="1100" />

<glyph glyph-name="icn_web_vendor_filled_calendar" unicode="&#xe817;" d="M887 484v-433c0-20-9-40-25-55-16-15-37-23-59-23h-583c-22 0-43 8-59 23-16 15-24 35-24 55v433h750z m-563-275c-11 0-21-4-29-11-7-7-12-16-13-26 0-10 3-20 10-28 7-7 17-12 27-14l5 0h42c10 0 21 4 28 11 8 7 13 16 13 26 1 10-3 20-9 28-7 7-17 12-27 14l-5 0h-42z m167 0c-11 0-22-4-30-12-8-7-12-17-12-27 0-11 4-21 12-28 8-8 19-12 30-12h41c11 0 22 4 30 12 8 7 12 17 12 28 0 10-4 20-12 27-8 8-19 12-30 12h-41z m-167 157c-11 0-22-4-29-11-8-8-13-18-13-28 0-11 5-21 13-28 7-7 18-11 29-11h42c11 0 21 4 29 11 8 7 12 17 12 28 0 10-4 20-12 28-8 7-18 11-29 11h-42z m167 0c-11 0-21-4-29-11-8-6-12-16-13-26 0-10 3-20 10-27 7-8 16-13 27-14l5 0h41c11 0 21 3 29 10 8 7 12 17 13 27 1 10-3 19-10 27-7 8-16 13-27 14l-5 0h-41z m166 0c-11 0-21-4-29-11-8-8-12-18-12-28 0-11 4-21 12-28 8-7 18-11 29-11h42c11 0 22 4 30 11 7 7 12 17 12 28 0 10-5 20-12 28-8 7-19 11-30 11h-42z m21 398c23 0 42-18 42-41v-42h83c22 0 43-8 59-23 16-15 25-35 25-56v-39h-750v39c0 21 8 41 24 56 16 15 37 23 59 23h83v42c0 23 19 41 42 41 23 0 41-18 41-41v-42h250v42c0 23 19 41 42 41z" horiz-adv-x="1063" />

<glyph glyph-name="icn_web_vendor_filled_chart" unicode="&#xe818;" d="M143 741c18 0 36-7 49-20 13-13 20-30 20-49v-575h668c18 0 36-8 49-20 13-13 20-31 20-49 0-19-7-36-20-49-13-13-31-20-49-20h-737c-18 0-36 7-49 20-13 13-20 30-20 49v644c0 19 7 36 20 49 13 13 31 20 49 20z m184-322c19 0 36-7 49-20 13-13 20-31 20-49v-138c0-18-7-36-20-49-13-13-30-20-49-20-18 0-36 7-49 20-12 13-20 31-20 49v138c0 18 8 36 20 49 13 13 31 20 49 20z m185 230c18 0 35-7 48-20 13-13 21-30 21-49v-368c0-18-8-36-21-49-13-13-30-20-48-20-19 0-36 7-49 20-13 13-21 31-21 49v368c0 19 8 36 21 49 13 13 30 20 49 20z m184-138c18 0 36-7 49-20 13-13 20-31 20-49v-230c0-18-7-36-20-49-13-13-31-20-49-20-19 0-36 7-49 20-13 13-20 31-20 49v230c0 18 7 36 20 49 13 13 30 20 49 20z" horiz-adv-x="1063" />

<glyph glyph-name="icn_web_vendor_filled_chat" unicode="&#xe819;" d="M689 409c37 0 74-10 107-28 33-19 60-46 79-78 19-33 30-69 30-107 1-38-8-75-27-108l16-51c2-7 2-14 0-21-2-7-5-13-10-19-5-5-12-8-19-10-6-2-14-2-20 0l-52 16c-29-16-61-25-94-27-33-1-66 5-96 18-31 13-58 33-79 58-21 25-37 55-45 87-8 32-9 65-2 97 6 33 20 63 41 89 20 26 46 47 75 62 30 15 63 22 96 22z m-217 315c78 0 155-26 217-74 62-48 106-115 126-190-60 28-127 35-191 21-65-15-122-50-164-101-42-51-65-115-67-181-1-66 20-130 59-183-57 3-112 20-161 49l-105-30c-6-2-14-3-21-1-7 2-13 6-18 11-5 5-9 11-10 18-2 7-2 14 0 21l31 104c-32 54-50 115-50 178-1 63 15 124 46 179 31 54 76 99 130 131 54 31 115 48 178 48z" horiz-adv-x="1063" />

<glyph glyph-name="icn_web_vendor_filled_counter" unicode="&#xe81a;" d="M696 288c13 0 26-4 36-11 11-8 20-18 25-30 4-12 6-25 3-37-2-13-8-25-18-34l-184-185c-13-12-29-19-47-19-17 0-33 7-46 19l-184 185c-10 9-16 21-18 34-3 12-1 25 3 37 5 12 14 22 25 30 10 7 23 11 36 11h369z m-185 440c18 0 34-7 47-19l184-185c10-9 16-21 18-33 3-13 1-26-3-38-5-12-14-22-25-29-10-8-23-11-36-11h-369c-13 0-26 3-36 11-11 7-20 17-25 29-4 12-6 25-3 38 2 12 8 24 18 33l184 185c13 12 29 19 46 19z" horiz-adv-x="1063" />

<glyph glyph-name="icn_web_vendor_filled_dashboard" unicode="&#xe81b;" d="M278 389c61-5 109-53 114-114 1-5 1-11 1-24v-158c0-13 0-19-1-24-5-61-53-109-114-114-5-1-11-1-24-1-12 0-18 0-24 1-60 5-109 53-114 114 0 5 0 11 0 24v158c0 13 0 19 0 24 5 61 54 109 114 114 6 1 12 1 24 1 13 0 19 0 24-1z m530-237c55 0 99-44 99-99 0-54-44-99-99-99h-237c-55 0-99 45-99 99 0 55 44 99 99 99h237z m-101 594c70 0 105 0 132-14 24-12 43-31 55-54 13-27 13-62 13-132v-115c0-70 0-105-13-131-12-24-31-43-55-55-27-14-62-14-132-14h-35c-70 0-105 0-132 14-23 12-42 31-54 55-14 26-14 61-14 131v115c0 70 0 105 14 132 12 23 31 42 54 54 27 14 62 14 132 14h35z m-453 0c77 0 139-62 139-139 0-76-62-138-139-138-76 0-138 62-138 138 0 77 62 139 138 139z" horiz-adv-x="1063" />

<glyph glyph-name="icn_web_vendor_filled_down" unicode="&#xe81c;" d="M688 475c13 0 25-4 35-11 10-7 18-17 23-28 5-11 6-24 4-36-3-12-9-23-17-32l-177-177c-12-12-28-18-44-18-17 0-33 6-45 18l-176 177c-9 9-15 20-18 32-2 12-1 25 4 36 5 11 13 21 23 28 10 7 22 11 35 11h353z" horiz-adv-x="1063" />

<glyph glyph-name="icn_web_vendor_filled_file" unicode="&#xe81d;" d="M548 743v-62c0-21 0-42 2-59 1-19 5-42 17-64 15-32 41-57 72-73 23-12 45-15 64-17 18-1 38-1 59-1h67v-377c0-46 0-70-9-87-8-16-21-29-36-37-18-9-41-9-88-9h-369c-47 0-70 0-88 9-15 8-28 21-36 37-9 17-9 41-9 87v520c0 46 0 70 9 88 8 15 21 28 36 36 18 9 41 9 88 9h221z m281-192h-59c-47 0-70 0-88 9-15 8-28 20-36 36-9 18-9 41-9 88v59l192-192z" horiz-adv-x="1063" />

<glyph glyph-name="icn_web_vendor_filled_group" unicode="&#xe81e;" d="M623 279c12 2 24 1 35-5 47-27 82-64 96-101 5-12 8-24 8-36 0-80-112-112-250-112-139 0-250 32-250 112 0 12 2 24 7 36 14 37 49 74 96 101 11 6 23 7 35 5 9-2 17-5 25-9 24-13 52-20 81-21 2 0 4 0 6 0 1 0 3 0 5 0 29 0 57 8 81 21 8 4 16 7 25 9z m-475 123c17 9 38 5 55-4 24-13 51-20 79-20 15 0 29 2 42 5 5-17 13-33 22-47-4-2-9-4-13-7-59-33-113-88-130-152-87 11-150 42-150 99 0 44 37 93 95 126z m672-4c17 9 38 13 55 4 58-33 95-82 95-126 0-57-63-88-150-99-17 64-71 119-130 152-4 3-9 5-13 7 10 14 17 30 22 47 13-3 27-5 42-5 28 0 55 7 79 20z m-308 175c73 0 132-59 132-132 0-74-59-133-132-133-74 0-133 59-133 133 0 73 59 132 133 132z m-230 103c52 0 96-32 113-77-48-36-80-94-80-158 0-1 0-2 0-4-10-3-21-4-33-4-67 0-121 54-121 121 0 67 54 122 121 122z m459 0c67 0 121-55 121-122 0-67-54-121-121-121-12 0-23 2-33 4 0 2 0 3 0 4 0 64-32 122-80 158 17 45 61 77 113 77z" horiz-adv-x="1063" />

<glyph glyph-name="icn_web_vendor_filled_loader" unicode="&#xe81f;" d="M463 722c81 11 165-6 236-47 15-9 20-28 11-43-8-15-27-20-42-11-60 34-129 48-197 39-68-9-132-40-180-89-49-49-80-112-89-180-9-68 4-138 39-197 34-60 87-106 151-133 63-26 134-31 200-13 67 18 126 57 167 112 42 54 65 121 65 190 0 17 14 31 31 31 18 0 31-14 31-31 0-82-27-163-77-228-50-66-121-113-200-134-80-22-165-16-241 16-76 31-140 87-181 159-42 71-58 154-47 236 11 82 48 158 106 216 59 59 135 96 217 107z" horiz-adv-x="1063" />

<glyph glyph-name="icn_web_vendor_filled_mail" unicode="&#xe820;" d="M949 88c0-24-9-46-26-62-16-17-38-26-61-26h-700c-24 0-46 9-62 26-17 16-26 38-26 62v401l317-316c32-32 75-50 121-50 45 0 88 18 120 50l317 317v-402z m-88 612c24 0 46-9 62-26 11-11 19-24 23-39l-388-388c-12-12-29-19-46-19-18 0-34 7-47 19l-388 388c4 15 12 28 23 39 16 17 38 26 62 26h699z" horiz-adv-x="1063" />

<glyph glyph-name="icn_web_vendor_filled_mailing" unicode="&#xe821;" d="M512 744c233 0 437-160 437-372 0-213-204-372-437-372-29 0-57 2-84 7-40-32-83-51-135-51-24 0-44 20-44 44 0 24 6 54-4 77-102 66-171 172-171 295 0 212 204 372 438 372z m-44-542c0-24 19-43 43-43 24 0 44 19 44 43h-87z m31 367c-12-1-20-3-20-17v-15c-63-14-99-70-99-138v-91c0-21-15-33-28-46-14-14-4-38 15-38h288c20 0 30 24 16 38-14 13-28 25-28 46v91c0 67-36 124-99 138v15c0 14-8 16-20 17h-25z" horiz-adv-x="1063" />

<glyph glyph-name="icn_web_vendor_filled_marker" unicode="&#xe822;" d="M199 541c104 0 188-84 188-187 0-104-84-188-188-188-104 0-187 84-187 188 0 103 83 187 187 187z" horiz-adv-x="1063" />

<glyph glyph-name="icn_web_vendor_filled_menu" unicode="&#xe823;" d="M893 144c31-3 56-29 56-62 0-32-25-59-56-62l-6 0h-750c-35 0-63 28-63 62 0 35 28 63 63 63h750l6-1z m0 268c31-3 56-30 56-62 0-32-25-59-56-62l-6 0h-750c-35 0-63 28-63 62 0 35 28 63 63 63h750l6-1z m0 268c31-3 56-30 56-62 0-32-25-59-56-62l-6-1h-750c-35 0-63 28-63 63 0 34 28 62 63 62h750l6 0z" horiz-adv-x="1063" />

<glyph glyph-name="icn_web_vendor_filled_notification" unicode="&#xe824;" d="M592 55c0-44-36-80-80-80-45 0-80 36-80 80h160z m-57 670c22-1 37-5 37-30v-27c114-27 180-130 180-253v-183c0-11 4-21 12-29l39-39c25-26 7-69-28-69h-527c-36 0-53 43-28 69l39 39c8 8 13 18 13 29v183c0 123 65 226 180 253v27c0 25 15 29 36 30h47z" horiz-adv-x="1063" />

<glyph glyph-name="icn_web_vendor_filled_offer" unicode="&#xe825;" d="M720 725c32 0 62-12 86-34 23-22 37-52 39-84l0-7v-181l25 11c25 11 55-6 58-33l0-5v-334c0-21-8-41-22-56-14-16-34-25-55-27l-6 0h-667c-21 0-41 8-56 22-16 15-25 34-27 55l0 6v334c0 28 28 48 54 40l5-2 24-11v181c0 32 12 63 34 86 22 23 52 37 84 39l7 0h417z m-417-83c-11 0-21-5-29-12-8-8-12-19-12-30v-218l250-111 250 111v218c0 11-5 22-13 30-7 7-18 12-29 12h-417z m209-125c10 0 20-4 28-12 8-7 12-17 13-28 1-10-3-21-10-29-6-8-16-13-27-14l-4-1h-84c-10 0-21 4-28 12-8 7-13 17-13 28-1 10 3 21 9 29 7 8 17 13 27 14l5 1h84z" horiz-adv-x="1063" />

<glyph glyph-name="icn_web_vendor_filled_partner" unicode="&#xe826;" d="M595 725c33 0 65-13 88-37 24-23 37-55 37-88h125c22 0 43-9 59-24 15-16 24-37 24-59v-459c0-22-9-43-24-59-16-15-37-24-59-24h-667c-22 0-43 9-59 24-15 16-24 37-24 59v459c0 22 9 43 24 59 16 15 37 24 59 24h125c0 33 13 65 37 88 23 24 55 37 88 37h167z m-375-292c-11 0-21-4-29-11-7-7-12-17-13-28 0-10 3-21 10-29 7-8 16-13 27-15l5 0h250v-42c0-10 4-20 11-28 8-8 18-13 28-13 11-1 21 3 29 10 8 6 14 16 15 26l0 5v42h250c11 0 21 4 29 11 8 8 12 18 13 28 0 11-3 21-10 29-7 9-16 14-27 15l-5 0h-583z m208 209c-10 0-20-4-27-11-8-7-13-16-14-26l0-5h250c0 10-4 20-11 28-7 7-16 12-26 13l-5 1h-167z" horiz-adv-x="1063" />

<glyph glyph-name="icn_web_vendor_filled_pass-hidden" unicode="&#xe827;" d="M512 610c177 0 331-122 411-199 35-34 35-88 0-122-80-77-234-199-411-199-178 0-332 122-412 199-35 34-35 88 0 122 80 77 234 199 412 199z m0-104c-87 0-157-70-157-156 0-86 70-156 157-156 86 0 156 70 156 156 0 86-70 156-156 156z" horiz-adv-x="1063" />

<glyph glyph-name="icn_web_vendor_filled_pass-visible" unicode="&#xe828;" d="M191 671c30 30 80 30 110 0l532-532 5-5c25-31 23-76-6-105-28-28-74-30-104-5l-6 5-81 82c-41-13-85-21-129-21-178 0-332 122-412 199-35 34-35 88 0 122 33 32 79 71 133 107l-42 42c-31 31-31 80 0 111z m170-281c-4-12-6-26-6-40 0-86 70-156 157-156 13 0 27 2 40 5l-191 191z m151 220c177 0 331-122 411-199 35-34 35-88 0-122-18-17-39-36-63-55l-375 375c8 1 17 1 27 1z" horiz-adv-x="1063" />

<glyph glyph-name="icn_web_vendor_filled_pass" unicode="&#xe829;" d="M512 756c128 0 233-104 233-233v-74c14-2 26-5 36-10 24-13 44-32 56-56 14-27 14-63 14-134v-102c0-71 0-107-14-134-12-24-32-43-56-55-27-14-63-14-134-14h-271c-71 0-107 0-134 14-24 12-44 31-56 55-14 27-14 63-14 134v102c0 71 0 107 14 134 12 24 32 43 56 56 10 5 22 8 36 10v74c0 129 105 233 234 233z m0-127c-59 0-106-47-106-106v-70h212v70c0 59-48 106-106 106z" horiz-adv-x="1063" />

<glyph glyph-name="icn_web_vendor_filled_person" unicode="&#xe82a;" d="M640 308c28 15 61 21 89 5 93-52 153-132 153-203 0-118-166-166-370-166-205 0-371 48-371 166 0 71 60 151 153 203 28 16 61 10 90-5 38-21 81-32 128-32 46 0 89 11 128 32z m-128 448c108 0 196-87 196-196 0-108-88-196-196-196-109 0-197 88-197 196 0 109 88 196 197 196z" horiz-adv-x="1063" />

<glyph glyph-name="icn_web_vendor_filled_report-distr" unicode="&#xe82b;" d="M842 659c21 0 40-8 55-22 14-15 22-35 22-55v-464c0-20-8-40-22-54-15-15-34-23-55-23h-618c-21 0-40 8-55 23-14 14-22 34-22 54v39h77v-39h618v409l-268-268c-11-11-25-17-41-17-15 0-30 6-41 17l-268 268v-22h-77v77c0 20 8 40 22 55 15 14 34 22 55 22h618z m-541-348c10 0 19-3 27-10 7-7 11-16 12-26 0-10-3-19-9-27-7-8-16-12-25-14l-5 0h-193c-10 0-19 4-27 11-7 6-11 16-12 25 0 10 3 20 9 28 7 7 16 12 25 13l5 0h193z m-38 116c10 0 20-4 27-11 7-7 11-17 11-27 0-11-4-20-11-28-7-7-17-11-27-11h-116c-11 0-20 4-28 11-7 8-11 17-11 28 0 10 4 20 11 27 8 7 17 11 28 11h116z" horiz-adv-x="1063" />

<glyph glyph-name="icn_web_vendor_filled_report" unicode="&#xe82c;" d="M887 725c11 0 21-4 29-12 8-8 12-19 12-30 0-11-4-21-12-29-8-8-18-12-29-12v-459c0-22-9-43-25-59-15-15-37-24-59-24h-210l95-95c8-8 12-19 12-30 0-11-5-21-12-29-8-8-19-12-29-12-11 0-22 4-30 11l-118 118-117-118c-8-7-19-11-30-11-11 0-21 4-29 12-8 8-12 18-12 29 0 11 4 22 12 30l95 95h-210c-22 0-43 9-59 24-16 16-24 37-24 59v459c-11 0-22 4-30 12-8 8-12 18-12 29 0 11 4 22 12 30 8 8 19 12 30 12h750z m-169-162c-11 0-22-4-30-12l-147-147-88 88c-8 8-19 12-30 12-11 0-22-4-30-12l-117-118c-8-7-12-18-12-29 0-11 5-21 12-29 8-8 19-12 30-12 10 0 21 4 29 12l88 88 88-88c8-8 19-13 30-13 11 0 22 5 30 13l176 176c8 8 12 19 12 30 0 11-5 21-12 29-8 7-18 12-29 12z" horiz-adv-x="1063" />

<glyph glyph-name="icn_web_vendor_filled_retail" unicode="&#xe82d;" d="M324 58c17 0 33-6 44-18 12-12 19-28 19-44 0-17-7-33-19-44-11-12-27-19-44-19-16 0-32 7-44 19-12 11-18 27-18 44 0 16 6 32 18 44 12 12 28 18 44 18z m417 0c16 0 32-6 44-18 12-12 18-28 18-44 0-17-6-33-18-44-12-12-28-19-44-19-17 0-33 7-44 19-12 11-19 27-19 44 0 16 7 32 19 44 11 12 27 18 44 18z m-604 709c71 0 126-54 131-125h569c12 0 24-3 35-8 11-5 21-13 29-22 7-10 13-21 16-32 3-12 4-25 2-37l-69-375c-3-19-13-36-28-49-15-12-34-19-54-19h-468c-21 0-41 8-56 22-16 15-25 34-27 55l-33 468c-2 25-24 38-47 38-11 0-22 5-30 13-8 7-12 18-12 29 0 11 4 22 12 30 8 7 19 12 30 12z" horiz-adv-x="1063" />

<glyph glyph-name="icn_web_vendor_filled_time" unicode="&#xe82e;" d="M512 767c230 0 416-187 416-417 0-230-186-417-416-417-231 0-417 187-417 417 0 230 186 417 417 417z m0-173c-23 0-42-18-42-41v-226c-1-15 5-29 17-37l4-3 126-73c20-11 46-4 57 16 12 19 5 45-15 57l-106 60v206c0 23-18 41-41 41z" horiz-adv-x="1063" />

<glyph glyph-name="icn_web_vendor_filled_up" unicode="&#xe82f;" d="M512 471c16 0 32-7 44-18l177-177c8-9 14-20 17-32 2-12 1-25-4-36-5-12-13-21-23-28-10-7-22-11-35-11h-353c-12 0-25 4-35 11-10 7-18 16-23 28-5 11-6 24-3 36 2 12 8 23 17 32l176 177c12 11 28 18 45 18z" horiz-adv-x="1063" />

<glyph glyph-name="icn_web_vendor_outline_arrow-down" unicode="&#xe830;" d="M230 234l-5 4c-20 26-19 63 5 87 23 23 61 25 86 4l5-4 115-116 0 464c0 35 29 64 64 64 36 0 64-29 64-64l0-464 115 116c25 25 66 25 91 0 25-26 25-66 0-91l-270-271-270 271z" horiz-adv-x="1000" />

<glyph glyph-name="icn_web_vendor_outline_arrow-l-medium" unicode="&#xe831;" d="M653-2c-20-19-51-19-71 0l-351 352 351 352 4 3c20 16 49 15 67-3 18-19 19-48 3-67l-3-4-281-281 281-281c19-19 19-51 0-71z" horiz-adv-x="1063" />

<glyph glyph-name="icn_web_vendor_outline_arrow-l" unicode="&#xe832;" d="M601 7c-15-14-39-14-53 0l-343 343 343 343c14 14 38 14 53 0 14-15 14-39 0-53l-290-290 290-290c14-14 14-38 0-53z" horiz-adv-x="1063" />

<glyph glyph-name="icn_web_vendor_outline_arrow-r-medium" unicode="&#xe833;" d="M370 702c20 19 51 19 71 0l351-352-351-352-4-3c-19-16-48-15-67 3-18 19-19 48-3 68l3 3 281 281-281 281c-19 19-19 51 0 71z" horiz-adv-x="1063" />

<glyph glyph-name="icn_web_vendor_outline_arrow-r" unicode="&#xe834;" d="M423 693c14 14 38 14 53 0l342-343-342-343c-15-14-39-14-53 0-15 15-15 39 0 53l289 290-289 290c-15 14-15 38 0 53z" horiz-adv-x="1063" />

<glyph glyph-name="icn_web_vendor_outline_arrow-up" unicode="&#xe835;" d="M783 467l5-5c20-26 19-63-5-86-23-24-60-25-86-5l-4 5-116 115v-463c0-36-28-65-64-65-35 0-64 29-64 65v463l-115-115c-25-26-66-26-91 0-25 25-25 65 0 91l270 270 270-270z" horiz-adv-x="1071" />

<glyph glyph-name="icn_web_vendor_outline_attention" unicode="&#xe836;" d="M500 762c228 0 413-184 413-412 0-228-185-412-413-412-228 0-412 184-412 412 0 228 184 412 412 412z m0-87c-179 0-325-146-325-325 0-179 146-325 325-325 180 0 325 146 325 325 0 179-145 325-325 325z m0-464c24 0 44-20 44-44 0-24-20-44-44-44-24 0-44 20-44 44 0 24 20 44 44 44z m0 372c24 0 44-20 44-44v-222l-1-9c-4-20-22-35-43-35-21 0-39 15-43 35l-1 9v222c0 24 20 44 44 44z" horiz-adv-x="1000" />

<glyph glyph-name="icn_web_vendor_outline_attention_1" unicode="&#xe837;" d="M500 737c214 0 387-173 387-387 0-214-173-387-387-387-214 0-387 173-387 387 0 214 173 387 387 387z m0-62c-179 0-325-146-325-325 0-179 146-325 325-325 180 0 325 146 325 325 0 179-145 325-325 325z m0-460c17 0 31-14 31-31 0-18-14-32-31-32-17 0-31 14-31 32 0 17 14 31 31 31z m0 324c17 0 31-14 31-31v-206l0-7c-3-14-16-25-31-25-15 0-28 11-31 25l0 7v206c0 17 14 31 31 31z" horiz-adv-x="1000" />

<glyph glyph-name="icn_web_vendor_outline_cancel" unicode="&#xe838;" d="M532 744c20 0 38 0 52-1 15-1 29-3 42-8 37-14 66-43 80-79 4-12 6-25 7-37h148c20 0 37-17 37-38 0-21-17-37-37-37h-37v-392c0-27 0-49-2-67-1-19-5-37-13-54-13-26-34-47-60-60-17-9-35-12-54-14-18-1-41-1-67-1h-230c-27 0-49 0-67 1-19 2-37 5-54 14-26 13-47 34-60 60-9 17-12 35-14 54-1 18-1 40-1 67v392h-39c-21 0-38 16-38 37 0 21 17 38 38 38h144c1 12 3 25 8 37 14 36 42 65 79 79 13 5 27 7 42 8 14 1 32 1 52 1h44z m-255-200v-391c0-28 0-47 1-62 1-14 3-21 6-26 6-12 15-21 27-27 5-3 11-5 26-6 15-1 34-1 62-1h227c29 0 48 0 63 1 14 1 21 3 26 6 11 6 21 15 27 27 2 5 4 12 6 26 1 15 1 34 1 62v391h-472z m154-86c21 0 37-17 37-38v-261c0-20-16-37-37-37-21 0-38 17-38 37v261c0 21 17 38 38 38z m160 0c21 0 38-17 38-38v-261c0-20-17-37-38-37-20 0-37 17-37 37v261c0 21 17 38 37 38z m-102 211c-22 0-37 0-48-1-11 0-17-2-20-3-17-6-30-19-36-36-1-2-2-6-3-10h256c-1 4-2 8-2 10-7 17-20 30-36 36-4 1-10 3-21 3-11 1-26 1-48 1h-42z" horiz-adv-x="1063" />

<glyph glyph-name="icn_web_vendor_outline_close" unicode="&#xe839;" d="M283 567c13 12 33 14 48 4l5-4 164-164 164 163c14 15 38 15 53 0 14-14 14-38 0-52l-164-164 164-163c14-15 14-39 0-53-15-15-39-15-54 0l-163 163-163-164-6-4c-15-10-35-8-47 4-13 13-15 33-5 48l5 5 163 164-164 164-4 5c-10 15-8 35 4 48z" horiz-adv-x="1000" />

<glyph glyph-name="icn_web_vendor_outline_close_m" unicode="&#xe83a;" d="M240 661c16 15 39 14 53 0l258-258 258 258c15 14 38 14 53 0 15-15 14-39 0-53l-258-258 258-258c14-14 14-38 0-53-15-14-39-14-53 0l-258 258-258-258c-13-14-37-15-53 0-15 16-14 39 0 53l258 258-258 258c-13 13-15 37 0 53z" horiz-adv-x="1063" />

<glyph glyph-name="icn_web_vendor_outline_collapse" unicode="&#xe83b;" d="M926 19c-17-17-45-17-62 0l-331 331 331 331c17 17 45 17 62 0 17-17 17-45 0-62l-270-269 270-269c17-17 17-45 0-62z m-402 0c-17-17-45-17-62 0l-332 331 332 331c17 17 45 17 62 0 17-17 17-45 0-62l-270-269 270-269c17-17 17-45 0-62z" horiz-adv-x="1063" />

<glyph glyph-name="icn_web_vendor_outline_dashboard" unicode="&#xe83c;" d="M244 394c78 0 141-63 141-141v-162c0-78-63-141-141-141-77 0-140 63-140 141v162c0 78 63 141 140 141z m536-211c64 0 116-52 116-117 0-64-52-116-116-116h-205c-64 0-116 52-117 116 0 65 53 117 117 117h205z m-536 124c-29 0-53-24-53-54v-162c0-30 24-53 53-53 30 0 54 23 54 53v162c0 30-24 54-54 54z m331-212c-16 0-29-13-29-29 0-16 13-28 29-28h205c16 0 29 12 29 28 0 16-13 29-29 29h-205z m18 654c55 4 114 4 169 0 19-2 38-6 56-15 26-15 49-35 63-62 8-18 12-37 14-56 1-19 1-42 1-70v-112c0-27 0-50-1-69-2-20-6-38-14-56-13-24-31-43-53-57-21-12-43-18-66-20-55-4-114-4-169 0-20 2-38 6-56 14-28 14-48 36-63 63-9 18-12 37-14 56-2 19-2 42-2 69v112c0 28 0 51 2 70 2 19 5 38 14 56 15 26 35 48 63 62 18 9 36 13 56 15z m162-88c-51 4-105 4-155 0-21-1-37-11-48-29-2-4-4-10-5-24-1-14-1-33-1-62v-112c0-28 0-47 1-62 1-14 3-20 5-23 11-18 27-28 48-30 50-4 104-4 155 0 20 2 38 11 48 30 3 7 4 15 4 23 2 15 2 34 2 62v112c0 29 0 48-2 62 0 8-1 16-4 24-10 19-28 28-48 29z m-510 89c77 0 140-63 140-141 0-78-63-141-140-141-78 0-141 64-141 141 0 78 63 141 141 141z m0-87c-30 0-54-24-54-54 0-29 24-53 54-53 29 0 53 24 53 53 0 30-24 54-53 54z" horiz-adv-x="1000" />

<glyph glyph-name="icn_web_vendor_outline_down" unicode="&#xe83d;" d="M169 364c-15 15-15 39 0 53 14 15 38 15 53 0l289-289 290 289c15 15 38 15 53 0 15-14 15-38 0-53l-343-342-342 342z" horiz-adv-x="1063" />

<glyph glyph-name="icn_web_vendor_outline_download" unicode="&#xe83e;" d="M891 292c24 0 44-20 44-44v-72c0-93-76-169-169-169h-440c-93 0-169 76-169 169v72c0 24 20 44 44 44 24 0 44-20 44-44v-72c0-45 36-81 81-81h440c45 0 81 36 81 81v72c0 24 20 44 44 44z m-345 401c24 0 44-20 44-44v-328l77 77c17 17 45 17 62 0 17-17 17-45 0-62l-183-183-183 183-6 7c-11 17-9 40 6 55 15 15 38 17 55 6l7-6 77-77v328c0 24 20 44 44 44z" horiz-adv-x="1063" />

<glyph glyph-name="icn_web_vendor_outline_edit" unicode="&#xe83f;" d="M487 625c21 0 38-17 38-38 0-21-17-37-38-37h-170c-18 0-29 0-38-1-8-1-10-2-11-2-4-3-8-6-11-11 0-1-1-3-1-11-1-8-1-20-1-38v-339c0-18 0-30 1-38 0-8 1-11 1-11 3-5 7-9 11-11 1 0 3-1 11-2 9-1 20-1 38-1h340c18 0 29 0 38 1 8 0 10 2 11 2 4 2 8 6 11 11 0 0 1 3 2 11 0 8 0 20 0 38v169c0 21 17 38 38 38 20 0 37-17 37-38v-171c0-16 0-31-1-42-1-13-3-26-10-39-9-19-25-34-43-44-13-7-26-9-39-10-12-1-26-1-43-1h-342c-16 0-31 0-43 1-13 1-26 3-39 10-18 10-34 25-43 44-7 13-9 26-10 39-1 11-1 26-1 42v343c0 16 0 30 1 42 1 13 3 26 10 39 9 19 25 34 43 44 13 6 26 9 39 10 12 1 27 1 43 1h171z m262 73c35 36 93 36 128 0 36-35 36-93 0-128l-338-339c-22-22-51-38-82-44l-59-12c-12-3-25 1-34 10-9 9-13 22-10 34l12 59c7 31 22 59 44 82l292 292c1 1 3 2 4 4 1 1 3 2 4 3l39 39z m-286-391c-12-12-20-28-23-44l-1-3 3 0c17 4 32 12 44 24l269 269-22 23-270-269z m361 338c-6 6-16 6-22 0l-16-16 22-23 16 17c7 6 7 16 0 22z" horiz-adv-x="1063" />

<glyph glyph-name="icn_web_vendor_outline_expand" unicode="&#xe840;" d="M132 681c17 17 45 17 62 0l331-331-331-331c-17-17-45-17-62 0-17 17-17 45 0 62l269 269-269 269c-17 17-17 45 0 62z m402 0c17 17 45 17 62 0l331-331-331-331c-17-17-45-17-62 0-17 17-17 45 0 62l269 269-269 269c-17 17-17 45 0 62z" horiz-adv-x="1063" />

<glyph glyph-name="icn_web_vendor_outline_eye-closed" unicode="&#xe841;" d="M136 683c15 14 37 14 52 1l642-642 3-4c10-14 8-34-5-47-13-13-32-15-47-5l-6 5-103 103c-48-18-100-29-154-29-101 0-194 39-267 86-65 41-117 89-152 124l-14 15c-33 35-33 89 0 124l14 15c31 31 75 72 129 109l-92 92c-14 14-14 38 0 53z m146-199c-46-30-85-64-115-93l-27-28c-6-6-6-15 0-22l27-28c32-30 74-67 124-99 67-42 145-74 227-74 32 0 64 5 95 13l-20 20c-23-9-49-15-75-15-107 0-194 87-194 194 0 27 5 52 15 75l-57 57z m236 156c101 0 193-40 267-87 74-47 132-102 166-139 31-33 33-82 5-117l-5-7c-30-32-79-79-141-122l-54 54c61 41 110 88 140 119l2 3c4 6 3 13-2 19-32 34-85 85-151 127-67 42-145 75-227 75-31 0-62-5-92-13l-59 59c47 17 97 29 151 29z m-119-288c0-65 53-119 119-119 5 0 9 1 14 1l-132 132c-1-4-1-9-1-14z m119 194c107 0 194-87 194-194 0-25-5-49-14-72l-62 62c0 3 1 7 1 10 0 66-54 119-119 119-4 0-7 0-10-1l-62 62c22 9 46 14 72 14z" horiz-adv-x="1063" />

<glyph glyph-name="icn_web_vendor_outline_eye" unicode="&#xe842;" d="M512 638c101 0 193-40 267-87 73-47 131-102 165-139 33-35 33-89 0-124-34-36-92-92-165-139-74-47-166-86-267-86-102 0-194 39-268 86-73 47-131 103-165 139-33 35-33 89 0 124 34 37 92 92 165 139 74 47 166 87 268 87z m0-75c-82 0-160-33-227-75-67-43-120-93-151-127-7-6-7-15 0-22 31-33 84-84 151-127 67-42 145-74 227-74 81 0 160 32 226 74 67 43 120 94 152 127 6 7 6 16 0 22-32 34-85 84-152 127-66 42-145 75-226 75z m0-19c107 0 193-87 193-194 0-107-86-194-193-194-107 0-194 87-194 194 0 107 87 194 194 194z m0-75c-66 0-119-53-119-119 0-66 53-119 119-119 65 0 118 53 118 119 0 66-53 119-118 119z" horiz-adv-x="1063" />

<glyph glyph-name="icn_web_vendor_outline_file" unicode="&#xe843;" d="M554 674c11 0 22-4 31-12l191-192c9-8 13-19 13-31h0v-270c0-16 0-32-1-44-1-10-2-21-6-31l-4-10c-9-18-23-33-40-43l-7-4c-14-7-28-9-41-10-13-1-28-1-45-1h-267c-17 0-32 0-45 1-10 0-20 2-31 6l-10 4c-18 9-32 23-42 39l-5 8c-7 13-9 28-10 41-1 12-1 28-1 44v362c0 16 0 32 1 44 1 13 3 28 10 41 11 20 27 37 47 47 14 7 28 9 41 10 13 1 28 1 45 1l176 0z m-176-87c-19 0-30 0-38-1-6 0-8-1-8-1-4-2-7-5-9-8 0-1 0-3-1-9-1-8-1-19-1-37v-362c0-18 0-29 1-37 1-6 1-8 1-9l4-4c1-2 3-3 5-4l1 0c1 0 3-1 7-1 8-1 19-1 38-1h267c19 0 30 0 38 1 6 0 8 1 8 1l5 4c2 1 3 3 4 4l0 2c0 1 1 3 1 7 1 8 1 19 1 37v226h-48c-17 0-32 0-45 1-10 1-20 3-30 7l-11 4c-20 10-36 27-46 47-7 13-10 28-11 41-1 12-1 27-1 44v48h-132z m220-85c1-6 1-8 2-9 1-3 4-6 8-8l1 0c1-1 4-1 7-1 6-1 13-1 24-1l-42 42c0-10 0-17 0-23z" horiz-adv-x="1063" />
</font>
</defs>
</svg>
